<?xml version="1.0" encoding="utf-8" standalone="no"?>
<!DOCTYPE svg PUBLIC "-//W3C//DTD SVG 1.1//EN"
  "http://www.w3.org/Graphics/SVG/1.1/DTD/svg11.dtd">
<svg xmlns:xlink="http://www.w3.org/1999/xlink" width="928.329062pt" height="344.426562pt" viewBox="0 0 928.329062 344.426562" xmlns="http://www.w3.org/2000/svg" version="1.1">
 <metadata>
  <rdf:RDF xmlns:dc="http://purl.org/dc/elements/1.1/" xmlns:cc="http://creativecommons.org/ns#" xmlns:rdf="http://www.w3.org/1999/02/22-rdf-syntax-ns#">
   <cc:Work>
    <dc:type rdf:resource="http://purl.org/dc/dcmitype/StillImage"/>
    <dc:date>2024-10-01T17:44:57.248998</dc:date>
    <dc:format>image/svg+xml</dc:format>
    <dc:creator>
     <cc:Agent>
      <dc:title>Matplotlib v3.6.0, https://matplotlib.org/</dc:title>
     </cc:Agent>
    </dc:creator>
   </cc:Work>
  </rdf:RDF>
 </metadata>
 <defs>
  <style type="text/css">*{stroke-linejoin: round; stroke-linecap: butt}</style>
 </defs>
 <g id="figure_1">
  <g id="patch_1">
   <path d="M 0 344.426562 
L 928.329062 344.426562 
L 928.329062 0 
L 0 0 
z
" style="fill: #ffffff"/>
  </g>
  <g id="axes_1">
   <g id="patch_2">
    <path d="M 63.889063 298.16 
L 447.129063 298.16 
L 447.129063 7.2 
L 63.889063 7.2 
z
" style="fill: #ffffff"/>
   </g>
   <g id="PathCollection_1">
    <defs>
     <path id="m22fa8c6750" d="M 0 3.535534 
C 0.937635 3.535534 1.836992 3.163008 2.5 2.5 
C 3.163008 1.836992 3.535534 0.937635 3.535534 0 
C 3.535534 -0.937635 3.163008 -1.836992 2.5 -2.5 
C 1.836992 -3.163008 0.937635 -3.535534 0 -3.535534 
C -0.937635 -3.535534 -1.836992 -3.163008 -2.5 -2.5 
C -3.163008 -1.836992 -3.535534 -0.937635 -3.535534 0 
C -3.535534 0.937635 -3.163008 1.836992 -2.5 2.5 
C -1.836992 3.163008 -0.937635 3.535534 0 3.535534 
z
" style="stroke: #1f77b4; stroke-opacity: 0.8"/>
    </defs>
    <g clip-path="url(#p6c43797dac)">
     <use xlink:href="#m22fa8c6750" x="429.709063" y="61.699355" style="fill: #1f77b4; fill-opacity: 0.8; stroke: #1f77b4; stroke-opacity: 0.8"/>
     <use xlink:href="#m22fa8c6750" x="173.018506" y="118.049791" style="fill: #1f77b4; fill-opacity: 0.8; stroke: #1f77b4; stroke-opacity: 0.8"/>
     <use xlink:href="#m22fa8c6750" x="142.981215" y="182.334531" style="fill: #1f77b4; fill-opacity: 0.8; stroke: #1f77b4; stroke-opacity: 0.8"/>
     <use xlink:href="#m22fa8c6750" x="119.67031" y="49.530251" style="fill: #1f77b4; fill-opacity: 0.8; stroke: #1f77b4; stroke-opacity: 0.8"/>
     <use xlink:href="#m22fa8c6750" x="99.628083" y="20.425455" style="fill: #1f77b4; fill-opacity: 0.8; stroke: #1f77b4; stroke-opacity: 0.8"/>
     <use xlink:href="#m22fa8c6750" x="165.539558" y="197.449314" style="fill: #1f77b4; fill-opacity: 0.8; stroke: #1f77b4; stroke-opacity: 0.8"/>
     <use xlink:href="#m22fa8c6750" x="81.309063" y="284.934545" style="fill: #1f77b4; fill-opacity: 0.8; stroke: #1f77b4; stroke-opacity: 0.8"/>
     <use xlink:href="#m22fa8c6750" x="127.924673" y="235.104646" style="fill: #1f77b4; fill-opacity: 0.8; stroke: #1f77b4; stroke-opacity: 0.8"/>
     <use xlink:href="#m22fa8c6750" x="128.065719" y="223.063851" style="fill: #1f77b4; fill-opacity: 0.8; stroke: #1f77b4; stroke-opacity: 0.8"/>
     <use xlink:href="#m22fa8c6750" x="179.982806" y="275.714" style="fill: #1f77b4; fill-opacity: 0.8; stroke: #1f77b4; stroke-opacity: 0.8"/>
    </g>
   </g>
   <g id="matplotlib.axis_1">
    <g id="xtick_1">
     <g id="line2d_1">
      <defs>
       <path id="mb1b45a6220" d="M 0 0 
L 0 3.5 
" style="stroke: #000000; stroke-width: 0.8"/>
      </defs>
      <g>
       <use xlink:href="#mb1b45a6220" x="88.90062" y="298.16" style="stroke: #000000; stroke-width: 0.8"/>
      </g>
     </g>
     <g id="text_1">
      <!-- 0.2 -->
      <g style="fill: #555555" transform="translate(77.768432 315.797812) scale(0.14 -0.14)">
       <defs>
        <path id="DejaVuSans-30" d="M 2034 4250 
Q 1547 4250 1301 3770 
Q 1056 3291 1056 2328 
Q 1056 1369 1301 889 
Q 1547 409 2034 409 
Q 2525 409 2770 889 
Q 3016 1369 3016 2328 
Q 3016 3291 2770 3770 
Q 2525 4250 2034 4250 
z
M 2034 4750 
Q 2819 4750 3233 4129 
Q 3647 3509 3647 2328 
Q 3647 1150 3233 529 
Q 2819 -91 2034 -91 
Q 1250 -91 836 529 
Q 422 1150 422 2328 
Q 422 3509 836 4129 
Q 1250 4750 2034 4750 
z
" transform="scale(0.015625)"/>
        <path id="DejaVuSans-2e" d="M 684 794 
L 1344 794 
L 1344 0 
L 684 0 
L 684 794 
z
" transform="scale(0.015625)"/>
        <path id="DejaVuSans-32" d="M 1228 531 
L 3431 531 
L 3431 0 
L 469 0 
L 469 531 
Q 828 903 1448 1529 
Q 2069 2156 2228 2338 
Q 2531 2678 2651 2914 
Q 2772 3150 2772 3378 
Q 2772 3750 2511 3984 
Q 2250 4219 1831 4219 
Q 1534 4219 1204 4116 
Q 875 4013 500 3803 
L 500 4441 
Q 881 4594 1212 4672 
Q 1544 4750 1819 4750 
Q 2544 4750 2975 4387 
Q 3406 4025 3406 3419 
Q 3406 3131 3298 2873 
Q 3191 2616 2906 2266 
Q 2828 2175 2409 1742 
Q 1991 1309 1228 531 
z
" transform="scale(0.015625)"/>
       </defs>
       <use xlink:href="#DejaVuSans-30"/>
       <use xlink:href="#DejaVuSans-2e" x="63.623047"/>
       <use xlink:href="#DejaVuSans-32" x="95.410156"/>
      </g>
     </g>
    </g>
    <g id="xtick_2">
     <g id="line2d_2">
      <g>
       <use xlink:href="#mb1b45a6220" x="137.412995" y="298.16" style="stroke: #000000; stroke-width: 0.8"/>
      </g>
     </g>
     <g id="text_2">
      <!-- 0.3 -->
      <g style="fill: #555555" transform="translate(126.280807 315.797812) scale(0.14 -0.14)">
       <defs>
        <path id="DejaVuSans-33" d="M 2597 2516 
Q 3050 2419 3304 2112 
Q 3559 1806 3559 1356 
Q 3559 666 3084 287 
Q 2609 -91 1734 -91 
Q 1441 -91 1130 -33 
Q 819 25 488 141 
L 488 750 
Q 750 597 1062 519 
Q 1375 441 1716 441 
Q 2309 441 2620 675 
Q 2931 909 2931 1356 
Q 2931 1769 2642 2001 
Q 2353 2234 1838 2234 
L 1294 2234 
L 1294 2753 
L 1863 2753 
Q 2328 2753 2575 2939 
Q 2822 3125 2822 3475 
Q 2822 3834 2567 4026 
Q 2313 4219 1838 4219 
Q 1578 4219 1281 4162 
Q 984 4106 628 3988 
L 628 4550 
Q 988 4650 1302 4700 
Q 1616 4750 1894 4750 
Q 2613 4750 3031 4423 
Q 3450 4097 3450 3541 
Q 3450 3153 3228 2886 
Q 3006 2619 2597 2516 
z
" transform="scale(0.015625)"/>
       </defs>
       <use xlink:href="#DejaVuSans-30"/>
       <use xlink:href="#DejaVuSans-2e" x="63.623047"/>
       <use xlink:href="#DejaVuSans-33" x="95.410156"/>
      </g>
     </g>
    </g>
    <g id="xtick_3">
     <g id="line2d_3">
      <g>
       <use xlink:href="#mb1b45a6220" x="185.925369" y="298.16" style="stroke: #000000; stroke-width: 0.8"/>
      </g>
     </g>
     <g id="text_3">
      <!-- 0.4 -->
      <g style="fill: #555555" transform="translate(174.793182 315.797812) scale(0.14 -0.14)">
       <defs>
        <path id="DejaVuSans-34" d="M 2419 4116 
L 825 1625 
L 2419 1625 
L 2419 4116 
z
M 2253 4666 
L 3047 4666 
L 3047 1625 
L 3713 1625 
L 3713 1100 
L 3047 1100 
L 3047 0 
L 2419 0 
L 2419 1100 
L 313 1100 
L 313 1709 
L 2253 4666 
z
" transform="scale(0.015625)"/>
       </defs>
       <use xlink:href="#DejaVuSans-30"/>
       <use xlink:href="#DejaVuSans-2e" x="63.623047"/>
       <use xlink:href="#DejaVuSans-34" x="95.410156"/>
      </g>
     </g>
    </g>
    <g id="xtick_4">
     <g id="line2d_4">
      <g>
       <use xlink:href="#mb1b45a6220" x="234.437744" y="298.16" style="stroke: #000000; stroke-width: 0.8"/>
      </g>
     </g>
     <g id="text_4">
      <!-- 0.5 -->
      <g style="fill: #555555" transform="translate(223.305557 315.797812) scale(0.14 -0.14)">
       <defs>
        <path id="DejaVuSans-35" d="M 691 4666 
L 3169 4666 
L 3169 4134 
L 1269 4134 
L 1269 2991 
Q 1406 3038 1543 3061 
Q 1681 3084 1819 3084 
Q 2600 3084 3056 2656 
Q 3513 2228 3513 1497 
Q 3513 744 3044 326 
Q 2575 -91 1722 -91 
Q 1428 -91 1123 -41 
Q 819 9 494 109 
L 494 744 
Q 775 591 1075 516 
Q 1375 441 1709 441 
Q 2250 441 2565 725 
Q 2881 1009 2881 1497 
Q 2881 1984 2565 2268 
Q 2250 2553 1709 2553 
Q 1456 2553 1204 2497 
Q 953 2441 691 2322 
L 691 4666 
z
" transform="scale(0.015625)"/>
       </defs>
       <use xlink:href="#DejaVuSans-30"/>
       <use xlink:href="#DejaVuSans-2e" x="63.623047"/>
       <use xlink:href="#DejaVuSans-35" x="95.410156"/>
      </g>
     </g>
    </g>
    <g id="xtick_5">
     <g id="line2d_5">
      <g>
       <use xlink:href="#mb1b45a6220" x="282.950119" y="298.16" style="stroke: #000000; stroke-width: 0.8"/>
      </g>
     </g>
     <g id="text_5">
      <!-- 0.6 -->
      <g style="fill: #555555" transform="translate(271.817931 315.797812) scale(0.14 -0.14)">
       <defs>
        <path id="DejaVuSans-36" d="M 2113 2584 
Q 1688 2584 1439 2293 
Q 1191 2003 1191 1497 
Q 1191 994 1439 701 
Q 1688 409 2113 409 
Q 2538 409 2786 701 
Q 3034 994 3034 1497 
Q 3034 2003 2786 2293 
Q 2538 2584 2113 2584 
z
M 3366 4563 
L 3366 3988 
Q 3128 4100 2886 4159 
Q 2644 4219 2406 4219 
Q 1781 4219 1451 3797 
Q 1122 3375 1075 2522 
Q 1259 2794 1537 2939 
Q 1816 3084 2150 3084 
Q 2853 3084 3261 2657 
Q 3669 2231 3669 1497 
Q 3669 778 3244 343 
Q 2819 -91 2113 -91 
Q 1303 -91 875 529 
Q 447 1150 447 2328 
Q 447 3434 972 4092 
Q 1497 4750 2381 4750 
Q 2619 4750 2861 4703 
Q 3103 4656 3366 4563 
z
" transform="scale(0.015625)"/>
       </defs>
       <use xlink:href="#DejaVuSans-30"/>
       <use xlink:href="#DejaVuSans-2e" x="63.623047"/>
       <use xlink:href="#DejaVuSans-36" x="95.410156"/>
      </g>
     </g>
    </g>
    <g id="xtick_6">
     <g id="line2d_6">
      <g>
       <use xlink:href="#mb1b45a6220" x="331.462494" y="298.16" style="stroke: #000000; stroke-width: 0.8"/>
      </g>
     </g>
     <g id="text_6">
      <!-- 0.7 -->
      <g style="fill: #555555" transform="translate(320.330306 315.797812) scale(0.14 -0.14)">
       <defs>
        <path id="DejaVuSans-37" d="M 525 4666 
L 3525 4666 
L 3525 4397 
L 1831 0 
L 1172 0 
L 2766 4134 
L 525 4134 
L 525 4666 
z
" transform="scale(0.015625)"/>
       </defs>
       <use xlink:href="#DejaVuSans-30"/>
       <use xlink:href="#DejaVuSans-2e" x="63.623047"/>
       <use xlink:href="#DejaVuSans-37" x="95.410156"/>
      </g>
     </g>
    </g>
    <g id="xtick_7">
     <g id="line2d_7">
      <g>
       <use xlink:href="#mb1b45a6220" x="379.974869" y="298.16" style="stroke: #000000; stroke-width: 0.8"/>
      </g>
     </g>
     <g id="text_7">
      <!-- 0.8 -->
      <g style="fill: #555555" transform="translate(368.842681 315.797812) scale(0.14 -0.14)">
       <defs>
        <path id="DejaVuSans-38" d="M 2034 2216 
Q 1584 2216 1326 1975 
Q 1069 1734 1069 1313 
Q 1069 891 1326 650 
Q 1584 409 2034 409 
Q 2484 409 2743 651 
Q 3003 894 3003 1313 
Q 3003 1734 2745 1975 
Q 2488 2216 2034 2216 
z
M 1403 2484 
Q 997 2584 770 2862 
Q 544 3141 544 3541 
Q 544 4100 942 4425 
Q 1341 4750 2034 4750 
Q 2731 4750 3128 4425 
Q 3525 4100 3525 3541 
Q 3525 3141 3298 2862 
Q 3072 2584 2669 2484 
Q 3125 2378 3379 2068 
Q 3634 1759 3634 1313 
Q 3634 634 3220 271 
Q 2806 -91 2034 -91 
Q 1263 -91 848 271 
Q 434 634 434 1313 
Q 434 1759 690 2068 
Q 947 2378 1403 2484 
z
M 1172 3481 
Q 1172 3119 1398 2916 
Q 1625 2713 2034 2713 
Q 2441 2713 2670 2916 
Q 2900 3119 2900 3481 
Q 2900 3844 2670 4047 
Q 2441 4250 2034 4250 
Q 1625 4250 1398 4047 
Q 1172 3844 1172 3481 
z
" transform="scale(0.015625)"/>
       </defs>
       <use xlink:href="#DejaVuSans-30"/>
       <use xlink:href="#DejaVuSans-2e" x="63.623047"/>
       <use xlink:href="#DejaVuSans-38" x="95.410156"/>
      </g>
     </g>
    </g>
    <g id="xtick_8">
     <g id="line2d_8">
      <g>
       <use xlink:href="#mb1b45a6220" x="428.487243" y="298.16" style="stroke: #000000; stroke-width: 0.8"/>
      </g>
     </g>
     <g id="text_8">
      <!-- 0.9 -->
      <g style="fill: #555555" transform="translate(417.355056 315.797812) scale(0.14 -0.14)">
       <defs>
        <path id="DejaVuSans-39" d="M 703 97 
L 703 672 
Q 941 559 1184 500 
Q 1428 441 1663 441 
Q 2288 441 2617 861 
Q 2947 1281 2994 2138 
Q 2813 1869 2534 1725 
Q 2256 1581 1919 1581 
Q 1219 1581 811 2004 
Q 403 2428 403 3163 
Q 403 3881 828 4315 
Q 1253 4750 1959 4750 
Q 2769 4750 3195 4129 
Q 3622 3509 3622 2328 
Q 3622 1225 3098 567 
Q 2575 -91 1691 -91 
Q 1453 -91 1209 -44 
Q 966 3 703 97 
z
M 1959 2075 
Q 2384 2075 2632 2365 
Q 2881 2656 2881 3163 
Q 2881 3666 2632 3958 
Q 2384 4250 1959 4250 
Q 1534 4250 1286 3958 
Q 1038 3666 1038 3163 
Q 1038 2656 1286 2365 
Q 1534 2075 1959 2075 
z
" transform="scale(0.015625)"/>
       </defs>
       <use xlink:href="#DejaVuSans-30"/>
       <use xlink:href="#DejaVuSans-2e" x="63.623047"/>
       <use xlink:href="#DejaVuSans-39" x="95.410156"/>
      </g>
     </g>
    </g>
    <g id="text_9">
     <!-- Small-to-Large Area Ratio -->
     <g transform="translate(159.219609 334.107031) scale(0.15 -0.15)">
      <defs>
       <path id="DejaVuSans-53" d="M 3425 4513 
L 3425 3897 
Q 3066 4069 2747 4153 
Q 2428 4238 2131 4238 
Q 1616 4238 1336 4038 
Q 1056 3838 1056 3469 
Q 1056 3159 1242 3001 
Q 1428 2844 1947 2747 
L 2328 2669 
Q 3034 2534 3370 2195 
Q 3706 1856 3706 1288 
Q 3706 609 3251 259 
Q 2797 -91 1919 -91 
Q 1588 -91 1214 -16 
Q 841 59 441 206 
L 441 856 
Q 825 641 1194 531 
Q 1563 422 1919 422 
Q 2459 422 2753 634 
Q 3047 847 3047 1241 
Q 3047 1584 2836 1778 
Q 2625 1972 2144 2069 
L 1759 2144 
Q 1053 2284 737 2584 
Q 422 2884 422 3419 
Q 422 4038 858 4394 
Q 1294 4750 2059 4750 
Q 2388 4750 2728 4690 
Q 3069 4631 3425 4513 
z
" transform="scale(0.015625)"/>
       <path id="DejaVuSans-6d" d="M 3328 2828 
Q 3544 3216 3844 3400 
Q 4144 3584 4550 3584 
Q 5097 3584 5394 3201 
Q 5691 2819 5691 2113 
L 5691 0 
L 5113 0 
L 5113 2094 
Q 5113 2597 4934 2840 
Q 4756 3084 4391 3084 
Q 3944 3084 3684 2787 
Q 3425 2491 3425 1978 
L 3425 0 
L 2847 0 
L 2847 2094 
Q 2847 2600 2669 2842 
Q 2491 3084 2119 3084 
Q 1678 3084 1418 2786 
Q 1159 2488 1159 1978 
L 1159 0 
L 581 0 
L 581 3500 
L 1159 3500 
L 1159 2956 
Q 1356 3278 1631 3431 
Q 1906 3584 2284 3584 
Q 2666 3584 2933 3390 
Q 3200 3197 3328 2828 
z
" transform="scale(0.015625)"/>
       <path id="DejaVuSans-61" d="M 2194 1759 
Q 1497 1759 1228 1600 
Q 959 1441 959 1056 
Q 959 750 1161 570 
Q 1363 391 1709 391 
Q 2188 391 2477 730 
Q 2766 1069 2766 1631 
L 2766 1759 
L 2194 1759 
z
M 3341 1997 
L 3341 0 
L 2766 0 
L 2766 531 
Q 2569 213 2275 61 
Q 1981 -91 1556 -91 
Q 1019 -91 701 211 
Q 384 513 384 1019 
Q 384 1609 779 1909 
Q 1175 2209 1959 2209 
L 2766 2209 
L 2766 2266 
Q 2766 2663 2505 2880 
Q 2244 3097 1772 3097 
Q 1472 3097 1187 3025 
Q 903 2953 641 2809 
L 641 3341 
Q 956 3463 1253 3523 
Q 1550 3584 1831 3584 
Q 2591 3584 2966 3190 
Q 3341 2797 3341 1997 
z
" transform="scale(0.015625)"/>
       <path id="DejaVuSans-6c" d="M 603 4863 
L 1178 4863 
L 1178 0 
L 603 0 
L 603 4863 
z
" transform="scale(0.015625)"/>
       <path id="DejaVuSans-2d" d="M 313 2009 
L 1997 2009 
L 1997 1497 
L 313 1497 
L 313 2009 
z
" transform="scale(0.015625)"/>
       <path id="DejaVuSans-74" d="M 1172 4494 
L 1172 3500 
L 2356 3500 
L 2356 3053 
L 1172 3053 
L 1172 1153 
Q 1172 725 1289 603 
Q 1406 481 1766 481 
L 2356 481 
L 2356 0 
L 1766 0 
Q 1100 0 847 248 
Q 594 497 594 1153 
L 594 3053 
L 172 3053 
L 172 3500 
L 594 3500 
L 594 4494 
L 1172 4494 
z
" transform="scale(0.015625)"/>
       <path id="DejaVuSans-6f" d="M 1959 3097 
Q 1497 3097 1228 2736 
Q 959 2375 959 1747 
Q 959 1119 1226 758 
Q 1494 397 1959 397 
Q 2419 397 2687 759 
Q 2956 1122 2956 1747 
Q 2956 2369 2687 2733 
Q 2419 3097 1959 3097 
z
M 1959 3584 
Q 2709 3584 3137 3096 
Q 3566 2609 3566 1747 
Q 3566 888 3137 398 
Q 2709 -91 1959 -91 
Q 1206 -91 779 398 
Q 353 888 353 1747 
Q 353 2609 779 3096 
Q 1206 3584 1959 3584 
z
" transform="scale(0.015625)"/>
       <path id="DejaVuSans-4c" d="M 628 4666 
L 1259 4666 
L 1259 531 
L 3531 531 
L 3531 0 
L 628 0 
L 628 4666 
z
" transform="scale(0.015625)"/>
       <path id="DejaVuSans-72" d="M 2631 2963 
Q 2534 3019 2420 3045 
Q 2306 3072 2169 3072 
Q 1681 3072 1420 2755 
Q 1159 2438 1159 1844 
L 1159 0 
L 581 0 
L 581 3500 
L 1159 3500 
L 1159 2956 
Q 1341 3275 1631 3429 
Q 1922 3584 2338 3584 
Q 2397 3584 2469 3576 
Q 2541 3569 2628 3553 
L 2631 2963 
z
" transform="scale(0.015625)"/>
       <path id="DejaVuSans-67" d="M 2906 1791 
Q 2906 2416 2648 2759 
Q 2391 3103 1925 3103 
Q 1463 3103 1205 2759 
Q 947 2416 947 1791 
Q 947 1169 1205 825 
Q 1463 481 1925 481 
Q 2391 481 2648 825 
Q 2906 1169 2906 1791 
z
M 3481 434 
Q 3481 -459 3084 -895 
Q 2688 -1331 1869 -1331 
Q 1566 -1331 1297 -1286 
Q 1028 -1241 775 -1147 
L 775 -588 
Q 1028 -725 1275 -790 
Q 1522 -856 1778 -856 
Q 2344 -856 2625 -561 
Q 2906 -266 2906 331 
L 2906 616 
Q 2728 306 2450 153 
Q 2172 0 1784 0 
Q 1141 0 747 490 
Q 353 981 353 1791 
Q 353 2603 747 3093 
Q 1141 3584 1784 3584 
Q 2172 3584 2450 3431 
Q 2728 3278 2906 2969 
L 2906 3500 
L 3481 3500 
L 3481 434 
z
" transform="scale(0.015625)"/>
       <path id="DejaVuSans-65" d="M 3597 1894 
L 3597 1613 
L 953 1613 
Q 991 1019 1311 708 
Q 1631 397 2203 397 
Q 2534 397 2845 478 
Q 3156 559 3463 722 
L 3463 178 
Q 3153 47 2828 -22 
Q 2503 -91 2169 -91 
Q 1331 -91 842 396 
Q 353 884 353 1716 
Q 353 2575 817 3079 
Q 1281 3584 2069 3584 
Q 2775 3584 3186 3129 
Q 3597 2675 3597 1894 
z
M 3022 2063 
Q 3016 2534 2758 2815 
Q 2500 3097 2075 3097 
Q 1594 3097 1305 2825 
Q 1016 2553 972 2059 
L 3022 2063 
z
" transform="scale(0.015625)"/>
       <path id="DejaVuSans-20" transform="scale(0.015625)"/>
       <path id="DejaVuSans-41" d="M 2188 4044 
L 1331 1722 
L 3047 1722 
L 2188 4044 
z
M 1831 4666 
L 2547 4666 
L 4325 0 
L 3669 0 
L 3244 1197 
L 1141 1197 
L 716 0 
L 50 0 
L 1831 4666 
z
" transform="scale(0.015625)"/>
       <path id="DejaVuSans-52" d="M 2841 2188 
Q 3044 2119 3236 1894 
Q 3428 1669 3622 1275 
L 4263 0 
L 3584 0 
L 2988 1197 
Q 2756 1666 2539 1819 
Q 2322 1972 1947 1972 
L 1259 1972 
L 1259 0 
L 628 0 
L 628 4666 
L 2053 4666 
Q 2853 4666 3247 4331 
Q 3641 3997 3641 3322 
Q 3641 2881 3436 2590 
Q 3231 2300 2841 2188 
z
M 1259 4147 
L 1259 2491 
L 2053 2491 
Q 2509 2491 2742 2702 
Q 2975 2913 2975 3322 
Q 2975 3731 2742 3939 
Q 2509 4147 2053 4147 
L 1259 4147 
z
" transform="scale(0.015625)"/>
       <path id="DejaVuSans-69" d="M 603 3500 
L 1178 3500 
L 1178 0 
L 603 0 
L 603 3500 
z
M 603 4863 
L 1178 4863 
L 1178 4134 
L 603 4134 
L 603 4863 
z
" transform="scale(0.015625)"/>
      </defs>
      <use xlink:href="#DejaVuSans-53"/>
      <use xlink:href="#DejaVuSans-6d" x="63.476562"/>
      <use xlink:href="#DejaVuSans-61" x="160.888672"/>
      <use xlink:href="#DejaVuSans-6c" x="222.167969"/>
      <use xlink:href="#DejaVuSans-6c" x="249.951172"/>
      <use xlink:href="#DejaVuSans-2d" x="277.734375"/>
      <use xlink:href="#DejaVuSans-74" x="313.818359"/>
      <use xlink:href="#DejaVuSans-6f" x="353.027344"/>
      <use xlink:href="#DejaVuSans-2d" x="416.083984"/>
      <use xlink:href="#DejaVuSans-4c" x="452.167969"/>
      <use xlink:href="#DejaVuSans-61" x="507.880859"/>
      <use xlink:href="#DejaVuSans-72" x="569.160156"/>
      <use xlink:href="#DejaVuSans-67" x="608.523438"/>
      <use xlink:href="#DejaVuSans-65" x="672"/>
      <use xlink:href="#DejaVuSans-20" x="733.523438"/>
      <use xlink:href="#DejaVuSans-41" x="765.310547"/>
      <use xlink:href="#DejaVuSans-72" x="833.71875"/>
      <use xlink:href="#DejaVuSans-65" x="872.582031"/>
      <use xlink:href="#DejaVuSans-61" x="934.105469"/>
      <use xlink:href="#DejaVuSans-20" x="995.384766"/>
      <use xlink:href="#DejaVuSans-52" x="1027.171875"/>
      <use xlink:href="#DejaVuSans-61" x="1094.404297"/>
      <use xlink:href="#DejaVuSans-74" x="1155.683594"/>
      <use xlink:href="#DejaVuSans-69" x="1194.892578"/>
      <use xlink:href="#DejaVuSans-6f" x="1222.675781"/>
     </g>
    </g>
   </g>
   <g id="matplotlib.axis_2">
    <g id="ytick_1">
     <g id="line2d_9">
      <defs>
       <path id="m36a33a5d63" d="M 0 0 
L -3.5 0 
" style="stroke: #000000; stroke-width: 0.8"/>
      </defs>
      <g>
       <use xlink:href="#m36a33a5d63" x="63.889063" y="262.149934" style="stroke: #000000; stroke-width: 0.8"/>
      </g>
     </g>
     <g id="text_10">
      <!-- 0.30 -->
      <g style="fill: #555555" transform="translate(25.717188 267.468841) scale(0.14 -0.14)">
       <use xlink:href="#DejaVuSans-30"/>
       <use xlink:href="#DejaVuSans-2e" x="63.623047"/>
       <use xlink:href="#DejaVuSans-33" x="95.410156"/>
       <use xlink:href="#DejaVuSans-30" x="159.033203"/>
      </g>
     </g>
    </g>
    <g id="ytick_2">
     <g id="line2d_10">
      <g>
       <use xlink:href="#m36a33a5d63" x="63.889063" y="217.965925" style="stroke: #000000; stroke-width: 0.8"/>
      </g>
     </g>
     <g id="text_11">
      <!-- 0.35 -->
      <g style="fill: #555555" transform="translate(25.717188 223.284831) scale(0.14 -0.14)">
       <use xlink:href="#DejaVuSans-30"/>
       <use xlink:href="#DejaVuSans-2e" x="63.623047"/>
       <use xlink:href="#DejaVuSans-33" x="95.410156"/>
       <use xlink:href="#DejaVuSans-35" x="159.033203"/>
      </g>
     </g>
    </g>
    <g id="ytick_3">
     <g id="line2d_11">
      <g>
       <use xlink:href="#m36a33a5d63" x="63.889063" y="173.781915" style="stroke: #000000; stroke-width: 0.8"/>
      </g>
     </g>
     <g id="text_12">
      <!-- 0.40 -->
      <g style="fill: #555555" transform="translate(25.717188 179.100822) scale(0.14 -0.14)">
       <use xlink:href="#DejaVuSans-30"/>
       <use xlink:href="#DejaVuSans-2e" x="63.623047"/>
       <use xlink:href="#DejaVuSans-34" x="95.410156"/>
       <use xlink:href="#DejaVuSans-30" x="159.033203"/>
      </g>
     </g>
    </g>
    <g id="ytick_4">
     <g id="line2d_12">
      <g>
       <use xlink:href="#m36a33a5d63" x="63.889063" y="129.597906" style="stroke: #000000; stroke-width: 0.8"/>
      </g>
     </g>
     <g id="text_13">
      <!-- 0.45 -->
      <g style="fill: #555555" transform="translate(25.717188 134.916812) scale(0.14 -0.14)">
       <use xlink:href="#DejaVuSans-30"/>
       <use xlink:href="#DejaVuSans-2e" x="63.623047"/>
       <use xlink:href="#DejaVuSans-34" x="95.410156"/>
       <use xlink:href="#DejaVuSans-35" x="159.033203"/>
      </g>
     </g>
    </g>
    <g id="ytick_5">
     <g id="line2d_13">
      <g>
       <use xlink:href="#m36a33a5d63" x="63.889063" y="85.413896" style="stroke: #000000; stroke-width: 0.8"/>
      </g>
     </g>
     <g id="text_14">
      <!-- 0.50 -->
      <g style="fill: #555555" transform="translate(25.717188 90.732802) scale(0.14 -0.14)">
       <use xlink:href="#DejaVuSans-30"/>
       <use xlink:href="#DejaVuSans-2e" x="63.623047"/>
       <use xlink:href="#DejaVuSans-35" x="95.410156"/>
       <use xlink:href="#DejaVuSans-30" x="159.033203"/>
      </g>
     </g>
    </g>
    <g id="ytick_6">
     <g id="line2d_14">
      <g>
       <use xlink:href="#m36a33a5d63" x="63.889063" y="41.229887" style="stroke: #000000; stroke-width: 0.8"/>
      </g>
     </g>
     <g id="text_15">
      <!-- 0.55 -->
      <g style="fill: #555555" transform="translate(25.717188 46.548793) scale(0.14 -0.14)">
       <use xlink:href="#DejaVuSans-30"/>
       <use xlink:href="#DejaVuSans-2e" x="63.623047"/>
       <use xlink:href="#DejaVuSans-35" x="95.410156"/>
       <use xlink:href="#DejaVuSans-35" x="159.033203"/>
      </g>
     </g>
    </g>
    <g id="text_16">
     <!-- Macro F1 (Small Parcels) -->
     <g transform="translate(18.597656 244.717891) rotate(-90) scale(0.15 -0.15)">
      <defs>
       <path id="DejaVuSans-4d" d="M 628 4666 
L 1569 4666 
L 2759 1491 
L 3956 4666 
L 4897 4666 
L 4897 0 
L 4281 0 
L 4281 4097 
L 3078 897 
L 2444 897 
L 1241 4097 
L 1241 0 
L 628 0 
L 628 4666 
z
" transform="scale(0.015625)"/>
       <path id="DejaVuSans-63" d="M 3122 3366 
L 3122 2828 
Q 2878 2963 2633 3030 
Q 2388 3097 2138 3097 
Q 1578 3097 1268 2742 
Q 959 2388 959 1747 
Q 959 1106 1268 751 
Q 1578 397 2138 397 
Q 2388 397 2633 464 
Q 2878 531 3122 666 
L 3122 134 
Q 2881 22 2623 -34 
Q 2366 -91 2075 -91 
Q 1284 -91 818 406 
Q 353 903 353 1747 
Q 353 2603 823 3093 
Q 1294 3584 2113 3584 
Q 2378 3584 2631 3529 
Q 2884 3475 3122 3366 
z
" transform="scale(0.015625)"/>
       <path id="DejaVuSans-46" d="M 628 4666 
L 3309 4666 
L 3309 4134 
L 1259 4134 
L 1259 2759 
L 3109 2759 
L 3109 2228 
L 1259 2228 
L 1259 0 
L 628 0 
L 628 4666 
z
" transform="scale(0.015625)"/>
       <path id="DejaVuSans-31" d="M 794 531 
L 1825 531 
L 1825 4091 
L 703 3866 
L 703 4441 
L 1819 4666 
L 2450 4666 
L 2450 531 
L 3481 531 
L 3481 0 
L 794 0 
L 794 531 
z
" transform="scale(0.015625)"/>
       <path id="DejaVuSans-28" d="M 1984 4856 
Q 1566 4138 1362 3434 
Q 1159 2731 1159 2009 
Q 1159 1288 1364 580 
Q 1569 -128 1984 -844 
L 1484 -844 
Q 1016 -109 783 600 
Q 550 1309 550 2009 
Q 550 2706 781 3412 
Q 1013 4119 1484 4856 
L 1984 4856 
z
" transform="scale(0.015625)"/>
       <path id="DejaVuSans-50" d="M 1259 4147 
L 1259 2394 
L 2053 2394 
Q 2494 2394 2734 2622 
Q 2975 2850 2975 3272 
Q 2975 3691 2734 3919 
Q 2494 4147 2053 4147 
L 1259 4147 
z
M 628 4666 
L 2053 4666 
Q 2838 4666 3239 4311 
Q 3641 3956 3641 3272 
Q 3641 2581 3239 2228 
Q 2838 1875 2053 1875 
L 1259 1875 
L 1259 0 
L 628 0 
L 628 4666 
z
" transform="scale(0.015625)"/>
       <path id="DejaVuSans-73" d="M 2834 3397 
L 2834 2853 
Q 2591 2978 2328 3040 
Q 2066 3103 1784 3103 
Q 1356 3103 1142 2972 
Q 928 2841 928 2578 
Q 928 2378 1081 2264 
Q 1234 2150 1697 2047 
L 1894 2003 
Q 2506 1872 2764 1633 
Q 3022 1394 3022 966 
Q 3022 478 2636 193 
Q 2250 -91 1575 -91 
Q 1294 -91 989 -36 
Q 684 19 347 128 
L 347 722 
Q 666 556 975 473 
Q 1284 391 1588 391 
Q 1994 391 2212 530 
Q 2431 669 2431 922 
Q 2431 1156 2273 1281 
Q 2116 1406 1581 1522 
L 1381 1569 
Q 847 1681 609 1914 
Q 372 2147 372 2553 
Q 372 3047 722 3315 
Q 1072 3584 1716 3584 
Q 2034 3584 2315 3537 
Q 2597 3491 2834 3397 
z
" transform="scale(0.015625)"/>
       <path id="DejaVuSans-29" d="M 513 4856 
L 1013 4856 
Q 1481 4119 1714 3412 
Q 1947 2706 1947 2009 
Q 1947 1309 1714 600 
Q 1481 -109 1013 -844 
L 513 -844 
Q 928 -128 1133 580 
Q 1338 1288 1338 2009 
Q 1338 2731 1133 3434 
Q 928 4138 513 4856 
z
" transform="scale(0.015625)"/>
      </defs>
      <use xlink:href="#DejaVuSans-4d"/>
      <use xlink:href="#DejaVuSans-61" x="86.279297"/>
      <use xlink:href="#DejaVuSans-63" x="147.558594"/>
      <use xlink:href="#DejaVuSans-72" x="202.539062"/>
      <use xlink:href="#DejaVuSans-6f" x="241.402344"/>
      <use xlink:href="#DejaVuSans-20" x="302.583984"/>
      <use xlink:href="#DejaVuSans-46" x="334.371094"/>
      <use xlink:href="#DejaVuSans-31" x="391.890625"/>
      <use xlink:href="#DejaVuSans-20" x="455.513672"/>
      <use xlink:href="#DejaVuSans-28" x="487.300781"/>
      <use xlink:href="#DejaVuSans-53" x="526.314453"/>
      <use xlink:href="#DejaVuSans-6d" x="589.791016"/>
      <use xlink:href="#DejaVuSans-61" x="687.203125"/>
      <use xlink:href="#DejaVuSans-6c" x="748.482422"/>
      <use xlink:href="#DejaVuSans-6c" x="776.265625"/>
      <use xlink:href="#DejaVuSans-20" x="804.048828"/>
      <use xlink:href="#DejaVuSans-50" x="835.835938"/>
      <use xlink:href="#DejaVuSans-61" x="891.638672"/>
      <use xlink:href="#DejaVuSans-72" x="952.917969"/>
      <use xlink:href="#DejaVuSans-63" x="991.78125"/>
      <use xlink:href="#DejaVuSans-65" x="1046.761719"/>
      <use xlink:href="#DejaVuSans-6c" x="1108.285156"/>
      <use xlink:href="#DejaVuSans-73" x="1136.068359"/>
      <use xlink:href="#DejaVuSans-29" x="1188.167969"/>
     </g>
    </g>
   </g>
   <g id="line2d_15">
    <path d="M 81.309063 190.302979 
L 84.828254 189.229082 
L 88.347446 188.155185 
L 91.866638 187.081289 
L 95.38583 186.007392 
L 98.905022 184.933495 
L 102.424214 183.859598 
L 105.943406 182.785702 
L 109.462598 181.711805 
L 112.98179 180.637908 
L 116.500982 179.564011 
L 120.020174 178.490115 
L 123.539366 177.416218 
L 127.058557 176.342321 
L 130.577749 175.268424 
L 134.096941 174.194528 
L 137.616133 173.120631 
L 141.135325 172.046734 
L 144.654517 170.972837 
L 148.173709 169.898941 
L 151.692901 168.825044 
L 155.212093 167.751147 
L 158.731285 166.67725 
L 162.250477 165.603354 
L 165.769669 164.529457 
L 169.28886 163.45556 
L 172.808052 162.381664 
L 176.327244 161.307767 
L 179.846436 160.23387 
L 183.365628 159.159973 
L 186.88482 158.086077 
L 190.404012 157.01218 
L 193.923204 155.938283 
L 197.442396 154.864386 
L 200.961588 153.79049 
L 204.48078 152.716593 
L 207.999972 151.642696 
L 211.519164 150.568799 
L 215.038355 149.494903 
L 218.557547 148.421006 
L 222.076739 147.347109 
L 225.595931 146.273212 
L 229.115123 145.199316 
L 232.634315 144.125419 
L 236.153507 143.051522 
L 239.672699 141.977625 
L 243.191891 140.903729 
L 246.711083 139.829832 
L 250.230275 138.755935 
L 253.749467 137.682038 
L 257.268658 136.608142 
L 260.78785 135.534245 
L 264.307042 134.460348 
L 267.826234 133.386452 
L 271.345426 132.312555 
L 274.864618 131.238658 
L 278.38381 130.164761 
L 281.903002 129.090865 
L 285.422194 128.016968 
L 288.941386 126.943071 
L 292.460578 125.869174 
L 295.97977 124.795278 
L 299.498961 123.721381 
L 303.018153 122.647484 
L 306.537345 121.573587 
L 310.056537 120.499691 
L 313.575729 119.425794 
L 317.094921 118.351897 
L 320.614113 117.278 
L 324.133305 116.204104 
L 327.652497 115.130207 
L 331.171689 114.05631 
L 334.690881 112.982413 
L 338.210073 111.908517 
L 341.729265 110.83462 
L 345.248456 109.760723 
L 348.767648 108.686826 
L 352.28684 107.61293 
L 355.806032 106.539033 
L 359.325224 105.465136 
L 362.844416 104.39124 
L 366.363608 103.317343 
L 369.8828 102.243446 
L 373.401992 101.169549 
L 376.921184 100.095653 
L 380.440376 99.021756 
L 383.959568 97.947859 
L 387.478759 96.873962 
L 390.997951 95.800066 
L 394.517143 94.726169 
L 398.036335 93.652272 
L 401.555527 92.578375 
L 405.074719 91.504479 
L 408.593911 90.430582 
L 412.113103 89.356685 
L 415.632295 88.282788 
L 419.151487 87.208892 
L 422.670679 86.134995 
L 426.189871 85.061098 
L 429.709063 83.987201 
" clip-path="url(#p6c43797dac)" style="fill: none; stroke: #800080; stroke-width: 2.25; stroke-linecap: square"/>
   </g>
   <g id="patch_3">
    <path d="M 63.889063 298.16 
L 63.889063 7.2 
" style="fill: none; stroke: #000000; stroke-width: 0.8; stroke-linejoin: miter; stroke-linecap: square"/>
   </g>
   <g id="patch_4">
    <path d="M 63.889063 298.16 
L 447.129063 298.16 
" style="fill: none; stroke: #000000; stroke-width: 0.8; stroke-linejoin: miter; stroke-linecap: square"/>
   </g>
   <g id="text_17">
    <!-- y = 0.1675x + 0.3504, $R^2$ = 0.0971 -->
    <g transform="translate(83.051063 209.8068) scale(0.12 -0.12)">
     <defs>
      <path id="DejaVuSans-79" d="M 2059 -325 
Q 1816 -950 1584 -1140 
Q 1353 -1331 966 -1331 
L 506 -1331 
L 506 -850 
L 844 -850 
Q 1081 -850 1212 -737 
Q 1344 -625 1503 -206 
L 1606 56 
L 191 3500 
L 800 3500 
L 1894 763 
L 2988 3500 
L 3597 3500 
L 2059 -325 
z
" transform="scale(0.015625)"/>
      <path id="DejaVuSans-3d" d="M 678 2906 
L 4684 2906 
L 4684 2381 
L 678 2381 
L 678 2906 
z
M 678 1631 
L 4684 1631 
L 4684 1100 
L 678 1100 
L 678 1631 
z
" transform="scale(0.015625)"/>
      <path id="DejaVuSans-78" d="M 3513 3500 
L 2247 1797 
L 3578 0 
L 2900 0 
L 1881 1375 
L 863 0 
L 184 0 
L 1544 1831 
L 300 3500 
L 978 3500 
L 1906 2253 
L 2834 3500 
L 3513 3500 
z
" transform="scale(0.015625)"/>
      <path id="DejaVuSans-2b" d="M 2944 4013 
L 2944 2272 
L 4684 2272 
L 4684 1741 
L 2944 1741 
L 2944 0 
L 2419 0 
L 2419 1741 
L 678 1741 
L 678 2272 
L 2419 2272 
L 2419 4013 
L 2944 4013 
z
" transform="scale(0.015625)"/>
      <path id="DejaVuSans-2c" d="M 750 794 
L 1409 794 
L 1409 256 
L 897 -744 
L 494 -744 
L 750 256 
L 750 794 
z
" transform="scale(0.015625)"/>
      <path id="DejaVuSans-Oblique-52" d="M 1613 4147 
L 1294 2491 
L 2106 2491 
Q 2584 2491 2879 2755 
Q 3175 3019 3175 3444 
Q 3175 3784 2976 3965 
Q 2778 4147 2406 4147 
L 1613 4147 
z
M 2772 2241 
Q 2972 2194 3105 2009 
Q 3238 1825 3413 1275 
L 3809 0 
L 3144 0 
L 2778 1197 
Q 2638 1659 2453 1815 
Q 2269 1972 1888 1972 
L 1191 1972 
L 806 0 
L 172 0 
L 1081 4666 
L 2503 4666 
Q 3150 4666 3495 4373 
Q 3841 4081 3841 3531 
Q 3841 3044 3547 2687 
Q 3253 2331 2772 2241 
z
" transform="scale(0.015625)"/>
     </defs>
     <use xlink:href="#DejaVuSans-79" transform="translate(0 0.765625)"/>
     <use xlink:href="#DejaVuSans-20" transform="translate(59.179688 0.765625)"/>
     <use xlink:href="#DejaVuSans-3d" transform="translate(90.966797 0.765625)"/>
     <use xlink:href="#DejaVuSans-20" transform="translate(174.755859 0.765625)"/>
     <use xlink:href="#DejaVuSans-30" transform="translate(206.542969 0.765625)"/>
     <use xlink:href="#DejaVuSans-2e" transform="translate(270.166016 0.765625)"/>
     <use xlink:href="#DejaVuSans-31" transform="translate(301.953125 0.765625)"/>
     <use xlink:href="#DejaVuSans-36" transform="translate(365.576172 0.765625)"/>
     <use xlink:href="#DejaVuSans-37" transform="translate(429.199219 0.765625)"/>
     <use xlink:href="#DejaVuSans-35" transform="translate(492.822266 0.765625)"/>
     <use xlink:href="#DejaVuSans-78" transform="translate(556.445312 0.765625)"/>
     <use xlink:href="#DejaVuSans-20" transform="translate(615.625 0.765625)"/>
     <use xlink:href="#DejaVuSans-2b" transform="translate(647.412109 0.765625)"/>
     <use xlink:href="#DejaVuSans-20" transform="translate(731.201172 0.765625)"/>
     <use xlink:href="#DejaVuSans-30" transform="translate(762.988281 0.765625)"/>
     <use xlink:href="#DejaVuSans-2e" transform="translate(826.611328 0.765625)"/>
     <use xlink:href="#DejaVuSans-33" transform="translate(858.398438 0.765625)"/>
     <use xlink:href="#DejaVuSans-35" transform="translate(922.021484 0.765625)"/>
     <use xlink:href="#DejaVuSans-30" transform="translate(985.644531 0.765625)"/>
     <use xlink:href="#DejaVuSans-34" transform="translate(1049.267578 0.765625)"/>
     <use xlink:href="#DejaVuSans-2c" transform="translate(1112.890625 0.765625)"/>
     <use xlink:href="#DejaVuSans-20" transform="translate(1144.677734 0.765625)"/>
     <use xlink:href="#DejaVuSans-Oblique-52" transform="translate(1176.464844 0.765625)"/>
     <use xlink:href="#DejaVuSans-32" transform="translate(1252.964036 39.046875) scale(0.7)"/>
     <use xlink:href="#DejaVuSans-20" transform="translate(1300.234544 0.765625)"/>
     <use xlink:href="#DejaVuSans-3d" transform="translate(1332.021654 0.765625)"/>
     <use xlink:href="#DejaVuSans-20" transform="translate(1415.810716 0.765625)"/>
     <use xlink:href="#DejaVuSans-30" transform="translate(1447.597826 0.765625)"/>
     <use xlink:href="#DejaVuSans-2e" transform="translate(1511.220872 0.765625)"/>
     <use xlink:href="#DejaVuSans-30" transform="translate(1543.007982 0.765625)"/>
     <use xlink:href="#DejaVuSans-39" transform="translate(1606.631029 0.765625)"/>
     <use xlink:href="#DejaVuSans-37" transform="translate(1670.254076 0.765625)"/>
     <use xlink:href="#DejaVuSans-31" transform="translate(1733.877122 0.765625)"/>
    </g>
   </g>
  </g>
  <g id="axes_2">
   <g id="patch_5">
    <path d="M 537.889062 298.16 
L 921.129063 298.16 
L 921.129063 7.2 
L 537.889062 7.2 
z
" style="fill: #ffffff"/>
   </g>
   <g id="PathCollection_2">
    <g clip-path="url(#p08f17cd18d)">
     <use xlink:href="#m22fa8c6750" x="903.709063" y="20.425455" style="fill: #1f77b4; fill-opacity: 0.8; stroke: #1f77b4; stroke-opacity: 0.8"/>
     <use xlink:href="#m22fa8c6750" x="647.018506" y="173.594277" style="fill: #1f77b4; fill-opacity: 0.8; stroke: #1f77b4; stroke-opacity: 0.8"/>
     <use xlink:href="#m22fa8c6750" x="616.981215" y="138.466427" style="fill: #1f77b4; fill-opacity: 0.8; stroke: #1f77b4; stroke-opacity: 0.8"/>
     <use xlink:href="#m22fa8c6750" x="593.67031" y="82.689323" style="fill: #1f77b4; fill-opacity: 0.8; stroke: #1f77b4; stroke-opacity: 0.8"/>
     <use xlink:href="#m22fa8c6750" x="573.628083" y="53.806776" style="fill: #1f77b4; fill-opacity: 0.8; stroke: #1f77b4; stroke-opacity: 0.8"/>
     <use xlink:href="#m22fa8c6750" x="639.539558" y="152.485339" style="fill: #1f77b4; fill-opacity: 0.8; stroke: #1f77b4; stroke-opacity: 0.8"/>
     <use xlink:href="#m22fa8c6750" x="555.309062" y="236.376595" style="fill: #1f77b4; fill-opacity: 0.8; stroke: #1f77b4; stroke-opacity: 0.8"/>
     <use xlink:href="#m22fa8c6750" x="601.924673" y="231.115009" style="fill: #1f77b4; fill-opacity: 0.8; stroke: #1f77b4; stroke-opacity: 0.8"/>
     <use xlink:href="#m22fa8c6750" x="602.065719" y="201.929546" style="fill: #1f77b4; fill-opacity: 0.8; stroke: #1f77b4; stroke-opacity: 0.8"/>
     <use xlink:href="#m22fa8c6750" x="653.982806" y="284.934545" style="fill: #1f77b4; fill-opacity: 0.8; stroke: #1f77b4; stroke-opacity: 0.8"/>
    </g>
   </g>
   <g id="matplotlib.axis_3">
    <g id="xtick_9">
     <g id="line2d_16">
      <g>
       <use xlink:href="#mb1b45a6220" x="562.90062" y="298.16" style="stroke: #000000; stroke-width: 0.8"/>
      </g>
     </g>
     <g id="text_18">
      <!-- 0.2 -->
      <g style="fill: #555555" transform="translate(551.768432 315.797812) scale(0.14 -0.14)">
       <use xlink:href="#DejaVuSans-30"/>
       <use xlink:href="#DejaVuSans-2e" x="63.623047"/>
       <use xlink:href="#DejaVuSans-32" x="95.410156"/>
      </g>
     </g>
    </g>
    <g id="xtick_10">
     <g id="line2d_17">
      <g>
       <use xlink:href="#mb1b45a6220" x="611.412995" y="298.16" style="stroke: #000000; stroke-width: 0.8"/>
      </g>
     </g>
     <g id="text_19">
      <!-- 0.3 -->
      <g style="fill: #555555" transform="translate(600.280807 315.797812) scale(0.14 -0.14)">
       <use xlink:href="#DejaVuSans-30"/>
       <use xlink:href="#DejaVuSans-2e" x="63.623047"/>
       <use xlink:href="#DejaVuSans-33" x="95.410156"/>
      </g>
     </g>
    </g>
    <g id="xtick_11">
     <g id="line2d_18">
      <g>
       <use xlink:href="#mb1b45a6220" x="659.925369" y="298.16" style="stroke: #000000; stroke-width: 0.8"/>
      </g>
     </g>
     <g id="text_20">
      <!-- 0.4 -->
      <g style="fill: #555555" transform="translate(648.793182 315.797812) scale(0.14 -0.14)">
       <use xlink:href="#DejaVuSans-30"/>
       <use xlink:href="#DejaVuSans-2e" x="63.623047"/>
       <use xlink:href="#DejaVuSans-34" x="95.410156"/>
      </g>
     </g>
    </g>
    <g id="xtick_12">
     <g id="line2d_19">
      <g>
       <use xlink:href="#mb1b45a6220" x="708.437744" y="298.16" style="stroke: #000000; stroke-width: 0.8"/>
      </g>
     </g>
     <g id="text_21">
      <!-- 0.5 -->
      <g style="fill: #555555" transform="translate(697.305557 315.797812) scale(0.14 -0.14)">
       <use xlink:href="#DejaVuSans-30"/>
       <use xlink:href="#DejaVuSans-2e" x="63.623047"/>
       <use xlink:href="#DejaVuSans-35" x="95.410156"/>
      </g>
     </g>
    </g>
    <g id="xtick_13">
     <g id="line2d_20">
      <g>
       <use xlink:href="#mb1b45a6220" x="756.950119" y="298.16" style="stroke: #000000; stroke-width: 0.8"/>
      </g>
     </g>
     <g id="text_22">
      <!-- 0.6 -->
      <g style="fill: #555555" transform="translate(745.817931 315.797812) scale(0.14 -0.14)">
       <use xlink:href="#DejaVuSans-30"/>
       <use xlink:href="#DejaVuSans-2e" x="63.623047"/>
       <use xlink:href="#DejaVuSans-36" x="95.410156"/>
      </g>
     </g>
    </g>
    <g id="xtick_14">
     <g id="line2d_21">
      <g>
       <use xlink:href="#mb1b45a6220" x="805.462494" y="298.16" style="stroke: #000000; stroke-width: 0.8"/>
      </g>
     </g>
     <g id="text_23">
      <!-- 0.7 -->
      <g style="fill: #555555" transform="translate(794.330306 315.797812) scale(0.14 -0.14)">
       <use xlink:href="#DejaVuSans-30"/>
       <use xlink:href="#DejaVuSans-2e" x="63.623047"/>
       <use xlink:href="#DejaVuSans-37" x="95.410156"/>
      </g>
     </g>
    </g>
    <g id="xtick_15">
     <g id="line2d_22">
      <g>
       <use xlink:href="#mb1b45a6220" x="853.974869" y="298.16" style="stroke: #000000; stroke-width: 0.8"/>
      </g>
     </g>
     <g id="text_24">
      <!-- 0.8 -->
      <g style="fill: #555555" transform="translate(842.842681 315.797812) scale(0.14 -0.14)">
       <use xlink:href="#DejaVuSans-30"/>
       <use xlink:href="#DejaVuSans-2e" x="63.623047"/>
       <use xlink:href="#DejaVuSans-38" x="95.410156"/>
      </g>
     </g>
    </g>
    <g id="xtick_16">
     <g id="line2d_23">
      <g>
       <use xlink:href="#mb1b45a6220" x="902.487243" y="298.16" style="stroke: #000000; stroke-width: 0.8"/>
      </g>
     </g>
     <g id="text_25">
      <!-- 0.9 -->
      <g style="fill: #555555" transform="translate(891.355056 315.797812) scale(0.14 -0.14)">
       <use xlink:href="#DejaVuSans-30"/>
       <use xlink:href="#DejaVuSans-2e" x="63.623047"/>
       <use xlink:href="#DejaVuSans-39" x="95.410156"/>
      </g>
     </g>
    </g>
    <g id="text_26">
     <!-- Small-to-Large Area Ratio -->
     <g transform="translate(633.219609 334.107031) scale(0.15 -0.15)">
      <use xlink:href="#DejaVuSans-53"/>
      <use xlink:href="#DejaVuSans-6d" x="63.476562"/>
      <use xlink:href="#DejaVuSans-61" x="160.888672"/>
      <use xlink:href="#DejaVuSans-6c" x="222.167969"/>
      <use xlink:href="#DejaVuSans-6c" x="249.951172"/>
      <use xlink:href="#DejaVuSans-2d" x="277.734375"/>
      <use xlink:href="#DejaVuSans-74" x="313.818359"/>
      <use xlink:href="#DejaVuSans-6f" x="353.027344"/>
      <use xlink:href="#DejaVuSans-2d" x="416.083984"/>
      <use xlink:href="#DejaVuSans-4c" x="452.167969"/>
      <use xlink:href="#DejaVuSans-61" x="507.880859"/>
      <use xlink:href="#DejaVuSans-72" x="569.160156"/>
      <use xlink:href="#DejaVuSans-67" x="608.523438"/>
      <use xlink:href="#DejaVuSans-65" x="672"/>
      <use xlink:href="#DejaVuSans-20" x="733.523438"/>
      <use xlink:href="#DejaVuSans-41" x="765.310547"/>
      <use xlink:href="#DejaVuSans-72" x="833.71875"/>
      <use xlink:href="#DejaVuSans-65" x="872.582031"/>
      <use xlink:href="#DejaVuSans-61" x="934.105469"/>
      <use xlink:href="#DejaVuSans-20" x="995.384766"/>
      <use xlink:href="#DejaVuSans-52" x="1027.171875"/>
      <use xlink:href="#DejaVuSans-61" x="1094.404297"/>
      <use xlink:href="#DejaVuSans-74" x="1155.683594"/>
      <use xlink:href="#DejaVuSans-69" x="1194.892578"/>
      <use xlink:href="#DejaVuSans-6f" x="1222.675781"/>
     </g>
    </g>
   </g>
   <g id="matplotlib.axis_4">
    <g id="ytick_7">
     <g id="line2d_24">
      <g>
       <use xlink:href="#m36a33a5d63" x="537.889062" y="262.964577" style="stroke: #000000; stroke-width: 0.8"/>
      </g>
     </g>
     <g id="text_27">
      <!-- 0.45 -->
      <g style="fill: #555555" transform="translate(499.717187 268.283483) scale(0.14 -0.14)">
       <use xlink:href="#DejaVuSans-30"/>
       <use xlink:href="#DejaVuSans-2e" x="63.623047"/>
       <use xlink:href="#DejaVuSans-34" x="95.410156"/>
       <use xlink:href="#DejaVuSans-35" x="159.033203"/>
      </g>
     </g>
    </g>
    <g id="ytick_8">
     <g id="line2d_25">
      <g>
       <use xlink:href="#m36a33a5d63" x="537.889062" y="223.144688" style="stroke: #000000; stroke-width: 0.8"/>
      </g>
     </g>
     <g id="text_28">
      <!-- 0.50 -->
      <g style="fill: #555555" transform="translate(499.717187 228.463595) scale(0.14 -0.14)">
       <use xlink:href="#DejaVuSans-30"/>
       <use xlink:href="#DejaVuSans-2e" x="63.623047"/>
       <use xlink:href="#DejaVuSans-35" x="95.410156"/>
       <use xlink:href="#DejaVuSans-30" x="159.033203"/>
      </g>
     </g>
    </g>
    <g id="ytick_9">
     <g id="line2d_26">
      <g>
       <use xlink:href="#m36a33a5d63" x="537.889062" y="183.3248" style="stroke: #000000; stroke-width: 0.8"/>
      </g>
     </g>
     <g id="text_29">
      <!-- 0.55 -->
      <g style="fill: #555555" transform="translate(499.717187 188.643706) scale(0.14 -0.14)">
       <use xlink:href="#DejaVuSans-30"/>
       <use xlink:href="#DejaVuSans-2e" x="63.623047"/>
       <use xlink:href="#DejaVuSans-35" x="95.410156"/>
       <use xlink:href="#DejaVuSans-35" x="159.033203"/>
      </g>
     </g>
    </g>
    <g id="ytick_10">
     <g id="line2d_27">
      <g>
       <use xlink:href="#m36a33a5d63" x="537.889062" y="143.504911" style="stroke: #000000; stroke-width: 0.8"/>
      </g>
     </g>
     <g id="text_30">
      <!-- 0.60 -->
      <g style="fill: #555555" transform="translate(499.717187 148.823818) scale(0.14 -0.14)">
       <use xlink:href="#DejaVuSans-30"/>
       <use xlink:href="#DejaVuSans-2e" x="63.623047"/>
       <use xlink:href="#DejaVuSans-36" x="95.410156"/>
       <use xlink:href="#DejaVuSans-30" x="159.033203"/>
      </g>
     </g>
    </g>
    <g id="ytick_11">
     <g id="line2d_28">
      <g>
       <use xlink:href="#m36a33a5d63" x="537.889062" y="103.685023" style="stroke: #000000; stroke-width: 0.8"/>
      </g>
     </g>
     <g id="text_31">
      <!-- 0.65 -->
      <g style="fill: #555555" transform="translate(499.717187 109.003929) scale(0.14 -0.14)">
       <use xlink:href="#DejaVuSans-30"/>
       <use xlink:href="#DejaVuSans-2e" x="63.623047"/>
       <use xlink:href="#DejaVuSans-36" x="95.410156"/>
       <use xlink:href="#DejaVuSans-35" x="159.033203"/>
      </g>
     </g>
    </g>
    <g id="ytick_12">
     <g id="line2d_29">
      <g>
       <use xlink:href="#m36a33a5d63" x="537.889062" y="63.865134" style="stroke: #000000; stroke-width: 0.8"/>
      </g>
     </g>
     <g id="text_32">
      <!-- 0.70 -->
      <g style="fill: #555555" transform="translate(499.717187 69.184041) scale(0.14 -0.14)">
       <use xlink:href="#DejaVuSans-30"/>
       <use xlink:href="#DejaVuSans-2e" x="63.623047"/>
       <use xlink:href="#DejaVuSans-37" x="95.410156"/>
       <use xlink:href="#DejaVuSans-30" x="159.033203"/>
      </g>
     </g>
    </g>
    <g id="ytick_13">
     <g id="line2d_30">
      <g>
       <use xlink:href="#m36a33a5d63" x="537.889062" y="24.045246" style="stroke: #000000; stroke-width: 0.8"/>
      </g>
     </g>
     <g id="text_33">
      <!-- 0.75 -->
      <g style="fill: #555555" transform="translate(499.717187 29.364152) scale(0.14 -0.14)">
       <use xlink:href="#DejaVuSans-30"/>
       <use xlink:href="#DejaVuSans-2e" x="63.623047"/>
       <use xlink:href="#DejaVuSans-37" x="95.410156"/>
       <use xlink:href="#DejaVuSans-35" x="159.033203"/>
      </g>
     </g>
    </g>
    <g id="text_34">
     <!-- Macro F1 (Large Parcels) -->
     <g transform="translate(492.597656 244.990937) rotate(-90) scale(0.15 -0.15)">
      <use xlink:href="#DejaVuSans-4d"/>
      <use xlink:href="#DejaVuSans-61" x="86.279297"/>
      <use xlink:href="#DejaVuSans-63" x="147.558594"/>
      <use xlink:href="#DejaVuSans-72" x="202.539062"/>
      <use xlink:href="#DejaVuSans-6f" x="241.402344"/>
      <use xlink:href="#DejaVuSans-20" x="302.583984"/>
      <use xlink:href="#DejaVuSans-46" x="334.371094"/>
      <use xlink:href="#DejaVuSans-31" x="391.890625"/>
      <use xlink:href="#DejaVuSans-20" x="455.513672"/>
      <use xlink:href="#DejaVuSans-28" x="487.300781"/>
      <use xlink:href="#DejaVuSans-4c" x="526.314453"/>
      <use xlink:href="#DejaVuSans-61" x="582.027344"/>
      <use xlink:href="#DejaVuSans-72" x="643.306641"/>
      <use xlink:href="#DejaVuSans-67" x="682.669922"/>
      <use xlink:href="#DejaVuSans-65" x="746.146484"/>
      <use xlink:href="#DejaVuSans-20" x="807.669922"/>
      <use xlink:href="#DejaVuSans-50" x="839.457031"/>
      <use xlink:href="#DejaVuSans-61" x="895.259766"/>
      <use xlink:href="#DejaVuSans-72" x="956.539062"/>
      <use xlink:href="#DejaVuSans-63" x="995.402344"/>
      <use xlink:href="#DejaVuSans-65" x="1050.382812"/>
      <use xlink:href="#DejaVuSans-6c" x="1111.90625"/>
      <use xlink:href="#DejaVuSans-73" x="1139.689453"/>
      <use xlink:href="#DejaVuSans-29" x="1191.789062"/>
     </g>
    </g>
   </g>
   <g id="line2d_31">
    <path d="M 555.309062 190.842685 
L 558.828254 189.440455 
L 562.347446 188.038224 
L 565.866638 186.635993 
L 569.38583 185.233763 
L 572.905022 183.831532 
L 576.424214 182.429301 
L 579.943406 181.027071 
L 583.462598 179.62484 
L 586.98179 178.222609 
L 590.500982 176.820378 
L 594.020174 175.418148 
L 597.539366 174.015917 
L 601.058557 172.613686 
L 604.577749 171.211456 
L 608.096941 169.809225 
L 611.616133 168.406994 
L 615.135325 167.004764 
L 618.654517 165.602533 
L 622.173709 164.200302 
L 625.692901 162.798071 
L 629.212093 161.395841 
L 632.731285 159.99361 
L 636.250477 158.591379 
L 639.769669 157.189149 
L 643.28886 155.786918 
L 646.808052 154.384687 
L 650.327244 152.982456 
L 653.846436 151.580226 
L 657.365628 150.177995 
L 660.88482 148.775764 
L 664.404012 147.373534 
L 667.923204 145.971303 
L 671.442396 144.569072 
L 674.961588 143.166842 
L 678.48078 141.764611 
L 681.999972 140.36238 
L 685.519164 138.960149 
L 689.038355 137.557919 
L 692.557547 136.155688 
L 696.076739 134.753457 
L 699.595931 133.351227 
L 703.115123 131.948996 
L 706.634315 130.546765 
L 710.153507 129.144535 
L 713.672699 127.742304 
L 717.191891 126.340073 
L 720.711083 124.937842 
L 724.230275 123.535612 
L 727.749467 122.133381 
L 731.268658 120.73115 
L 734.78785 119.32892 
L 738.307042 117.926689 
L 741.826234 116.524458 
L 745.345426 115.122228 
L 748.864618 113.719997 
L 752.38381 112.317766 
L 755.903002 110.915535 
L 759.422194 109.513305 
L 762.941386 108.111074 
L 766.460578 106.708843 
L 769.97977 105.306613 
L 773.498961 103.904382 
L 777.018153 102.502151 
L 780.537345 101.099921 
L 784.056537 99.69769 
L 787.575729 98.295459 
L 791.094921 96.893228 
L 794.614113 95.490998 
L 798.133305 94.088767 
L 801.652497 92.686536 
L 805.171689 91.284306 
L 808.690881 89.882075 
L 812.210073 88.479844 
L 815.729265 87.077614 
L 819.248456 85.675383 
L 822.767648 84.273152 
L 826.28684 82.870921 
L 829.806032 81.468691 
L 833.325224 80.06646 
L 836.844416 78.664229 
L 840.363608 77.261999 
L 843.8828 75.859768 
L 847.401992 74.457537 
L 850.921184 73.055306 
L 854.440376 71.653076 
L 857.959568 70.250845 
L 861.478759 68.848614 
L 864.997951 67.446384 
L 868.517143 66.044153 
L 872.036335 64.641922 
L 875.555527 63.239692 
L 879.074719 61.837461 
L 882.593911 60.43523 
L 886.113103 59.032999 
L 889.632295 57.630769 
L 893.151487 56.228538 
L 896.670679 54.826307 
L 900.189871 53.424077 
L 903.709063 52.021846 
" clip-path="url(#p08f17cd18d)" style="fill: none; stroke: #800080; stroke-width: 2.25; stroke-linecap: square"/>
   </g>
   <g id="patch_6">
    <path d="M 537.889062 298.16 
L 537.889062 7.2 
" style="fill: none; stroke: #000000; stroke-width: 0.8; stroke-linejoin: miter; stroke-linecap: square"/>
   </g>
   <g id="patch_7">
    <path d="M 537.889062 298.16 
L 921.129063 298.16 
" style="fill: none; stroke: #000000; stroke-width: 0.8; stroke-linejoin: miter; stroke-linecap: square"/>
   </g>
   <g id="text_35">
    <!-- y = 0.2427x + 0.4958, $R^2$ = 0.2102 -->
    <g transform="translate(557.051062 209.8068) scale(0.12 -0.12)">
     <use xlink:href="#DejaVuSans-79" transform="translate(0 0.765625)"/>
     <use xlink:href="#DejaVuSans-20" transform="translate(59.179688 0.765625)"/>
     <use xlink:href="#DejaVuSans-3d" transform="translate(90.966797 0.765625)"/>
     <use xlink:href="#DejaVuSans-20" transform="translate(174.755859 0.765625)"/>
     <use xlink:href="#DejaVuSans-30" transform="translate(206.542969 0.765625)"/>
     <use xlink:href="#DejaVuSans-2e" transform="translate(270.166016 0.765625)"/>
     <use xlink:href="#DejaVuSans-32" transform="translate(296.453125 0.765625)"/>
     <use xlink:href="#DejaVuSans-34" transform="translate(360.076172 0.765625)"/>
     <use xlink:href="#DejaVuSans-32" transform="translate(423.699219 0.765625)"/>
     <use xlink:href="#DejaVuSans-37" transform="translate(487.322266 0.765625)"/>
     <use xlink:href="#DejaVuSans-78" transform="translate(550.945312 0.765625)"/>
     <use xlink:href="#DejaVuSans-20" transform="translate(610.125 0.765625)"/>
     <use xlink:href="#DejaVuSans-2b" transform="translate(641.912109 0.765625)"/>
     <use xlink:href="#DejaVuSans-20" transform="translate(725.701172 0.765625)"/>
     <use xlink:href="#DejaVuSans-30" transform="translate(757.488281 0.765625)"/>
     <use xlink:href="#DejaVuSans-2e" transform="translate(821.111328 0.765625)"/>
     <use xlink:href="#DejaVuSans-34" transform="translate(852.898438 0.765625)"/>
     <use xlink:href="#DejaVuSans-39" transform="translate(916.521484 0.765625)"/>
     <use xlink:href="#DejaVuSans-35" transform="translate(980.144531 0.765625)"/>
     <use xlink:href="#DejaVuSans-38" transform="translate(1043.767578 0.765625)"/>
     <use xlink:href="#DejaVuSans-2c" transform="translate(1107.390625 0.765625)"/>
     <use xlink:href="#DejaVuSans-20" transform="translate(1139.177734 0.765625)"/>
     <use xlink:href="#DejaVuSans-Oblique-52" transform="translate(1170.964844 0.765625)"/>
     <use xlink:href="#DejaVuSans-32" transform="translate(1247.464036 39.046875) scale(0.7)"/>
     <use xlink:href="#DejaVuSans-20" transform="translate(1294.734544 0.765625)"/>
     <use xlink:href="#DejaVuSans-3d" transform="translate(1326.521654 0.765625)"/>
     <use xlink:href="#DejaVuSans-20" transform="translate(1410.310716 0.765625)"/>
     <use xlink:href="#DejaVuSans-30" transform="translate(1442.097826 0.765625)"/>
     <use xlink:href="#DejaVuSans-2e" transform="translate(1505.720872 0.765625)"/>
     <use xlink:href="#DejaVuSans-32" transform="translate(1532.007982 0.765625)"/>
     <use xlink:href="#DejaVuSans-31" transform="translate(1595.631029 0.765625)"/>
     <use xlink:href="#DejaVuSans-30" transform="translate(1659.254076 0.765625)"/>
     <use xlink:href="#DejaVuSans-32" transform="translate(1722.877122 0.765625)"/>
    </g>
   </g>
  </g>
 </g>
 <defs>
  <clipPath id="p6c43797dac">
   <rect x="63.889063" y="7.2" width="383.24" height="290.96"/>
  </clipPath>
  <clipPath id="p08f17cd18d">
   <rect x="537.889062" y="7.2" width="383.24" height="290.96"/>
  </clipPath>
 </defs>
</svg>
