<?xml version="1.0" encoding="utf-8" standalone="no"?>
<!DOCTYPE svg PUBLIC "-//W3C//DTD SVG 1.1//EN"
  "http://www.w3.org/Graphics/SVG/1.1/DTD/svg11.dtd">
<svg xmlns:xlink="http://www.w3.org/1999/xlink" width="720pt" height="432pt" viewBox="0 0 720 432" xmlns="http://www.w3.org/2000/svg" version="1.1">
 <metadata>
  <rdf:RDF xmlns:dc="http://purl.org/dc/elements/1.1/" xmlns:cc="http://creativecommons.org/ns#" xmlns:rdf="http://www.w3.org/1999/02/22-rdf-syntax-ns#">
   <cc:Work>
    <dc:type rdf:resource="http://purl.org/dc/dcmitype/StillImage"/>
    <dc:date>2024-09-25T16:37:56.724001</dc:date>
    <dc:format>image/svg+xml</dc:format>
    <dc:creator>
     <cc:Agent>
      <dc:title>Matplotlib v3.6.0, https://matplotlib.org/</dc:title>
     </cc:Agent>
    </dc:creator>
   </cc:Work>
  </rdf:RDF>
 </metadata>
 <defs>
  <style type="text/css">*{stroke-linejoin: round; stroke-linecap: butt}</style>
 </defs>
 <g id="figure_1">
  <g id="patch_1">
   <path d="M 0 432 
L 720 432 
L 720 0 
L 0 0 
z
" style="fill: #ffffff"/>
  </g>
  <g id="axes_1">
   <g id="patch_2">
    <path d="M 90 384.48 
L 648 384.48 
L 648 51.84 
L 90 51.84 
z
" style="fill: #ffffff"/>
   </g>
   <g id="matplotlib.axis_1">
    <g id="xtick_1">
     <g id="line2d_1">
      <defs>
       <path id="m018e4e21be" d="M 0 0 
L 0 3.5 
" style="stroke: #000000; stroke-width: 0.8"/>
      </defs>
      <g>
       <use xlink:href="#m018e4e21be" x="115.363636" y="384.48" style="stroke: #000000; stroke-width: 0.8"/>
      </g>
     </g>
     <g id="text_1">
      <!--  1 -->
      <g transform="translate(110.593324 399.078438) scale(0.1 -0.1)">
       <defs>
        <path id="DejaVuSans-20" transform="scale(0.015625)"/>
        <path id="DejaVuSans-31" d="M 794 531 
L 1825 531 
L 1825 4091 
L 703 3866 
L 703 4441 
L 1819 4666 
L 2450 4666 
L 2450 531 
L 3481 531 
L 3481 0 
L 794 0 
L 794 531 
z
" transform="scale(0.015625)"/>
       </defs>
       <use xlink:href="#DejaVuSans-20"/>
       <use xlink:href="#DejaVuSans-31" x="31.787109"/>
      </g>
     </g>
    </g>
    <g id="xtick_2">
     <g id="line2d_2">
      <g>
       <use xlink:href="#m018e4e21be" x="142.062201" y="384.48" style="stroke: #000000; stroke-width: 0.8"/>
      </g>
     </g>
     <g id="text_2">
      <!--  2 -->
      <g transform="translate(137.291888 399.078438) scale(0.1 -0.1)">
       <defs>
        <path id="DejaVuSans-32" d="M 1228 531 
L 3431 531 
L 3431 0 
L 469 0 
L 469 531 
Q 828 903 1448 1529 
Q 2069 2156 2228 2338 
Q 2531 2678 2651 2914 
Q 2772 3150 2772 3378 
Q 2772 3750 2511 3984 
Q 2250 4219 1831 4219 
Q 1534 4219 1204 4116 
Q 875 4013 500 3803 
L 500 4441 
Q 881 4594 1212 4672 
Q 1544 4750 1819 4750 
Q 2544 4750 2975 4387 
Q 3406 4025 3406 3419 
Q 3406 3131 3298 2873 
Q 3191 2616 2906 2266 
Q 2828 2175 2409 1742 
Q 1991 1309 1228 531 
z
" transform="scale(0.015625)"/>
       </defs>
       <use xlink:href="#DejaVuSans-20"/>
       <use xlink:href="#DejaVuSans-32" x="31.787109"/>
      </g>
     </g>
    </g>
    <g id="xtick_3">
     <g id="line2d_3">
      <g>
       <use xlink:href="#m018e4e21be" x="168.760766" y="384.48" style="stroke: #000000; stroke-width: 0.8"/>
      </g>
     </g>
     <g id="text_3">
      <!--  3 -->
      <g transform="translate(163.990453 399.078438) scale(0.1 -0.1)">
       <defs>
        <path id="DejaVuSans-33" d="M 2597 2516 
Q 3050 2419 3304 2112 
Q 3559 1806 3559 1356 
Q 3559 666 3084 287 
Q 2609 -91 1734 -91 
Q 1441 -91 1130 -33 
Q 819 25 488 141 
L 488 750 
Q 750 597 1062 519 
Q 1375 441 1716 441 
Q 2309 441 2620 675 
Q 2931 909 2931 1356 
Q 2931 1769 2642 2001 
Q 2353 2234 1838 2234 
L 1294 2234 
L 1294 2753 
L 1863 2753 
Q 2328 2753 2575 2939 
Q 2822 3125 2822 3475 
Q 2822 3834 2567 4026 
Q 2313 4219 1838 4219 
Q 1578 4219 1281 4162 
Q 984 4106 628 3988 
L 628 4550 
Q 988 4650 1302 4700 
Q 1616 4750 1894 4750 
Q 2613 4750 3031 4423 
Q 3450 4097 3450 3541 
Q 3450 3153 3228 2886 
Q 3006 2619 2597 2516 
z
" transform="scale(0.015625)"/>
       </defs>
       <use xlink:href="#DejaVuSans-20"/>
       <use xlink:href="#DejaVuSans-33" x="31.787109"/>
      </g>
     </g>
    </g>
    <g id="xtick_4">
     <g id="line2d_4">
      <g>
       <use xlink:href="#m018e4e21be" x="195.45933" y="384.48" style="stroke: #000000; stroke-width: 0.8"/>
      </g>
     </g>
     <g id="text_4">
      <!--  4 -->
      <g transform="translate(190.689018 399.078438) scale(0.1 -0.1)">
       <defs>
        <path id="DejaVuSans-34" d="M 2419 4116 
L 825 1625 
L 2419 1625 
L 2419 4116 
z
M 2253 4666 
L 3047 4666 
L 3047 1625 
L 3713 1625 
L 3713 1100 
L 3047 1100 
L 3047 0 
L 2419 0 
L 2419 1100 
L 313 1100 
L 313 1709 
L 2253 4666 
z
" transform="scale(0.015625)"/>
       </defs>
       <use xlink:href="#DejaVuSans-20"/>
       <use xlink:href="#DejaVuSans-34" x="31.787109"/>
      </g>
     </g>
    </g>
    <g id="xtick_5">
     <g id="line2d_5">
      <g>
       <use xlink:href="#m018e4e21be" x="222.157895" y="384.48" style="stroke: #000000; stroke-width: 0.8"/>
      </g>
     </g>
     <g id="text_5">
      <!--  5 -->
      <g transform="translate(217.387582 399.078438) scale(0.1 -0.1)">
       <defs>
        <path id="DejaVuSans-35" d="M 691 4666 
L 3169 4666 
L 3169 4134 
L 1269 4134 
L 1269 2991 
Q 1406 3038 1543 3061 
Q 1681 3084 1819 3084 
Q 2600 3084 3056 2656 
Q 3513 2228 3513 1497 
Q 3513 744 3044 326 
Q 2575 -91 1722 -91 
Q 1428 -91 1123 -41 
Q 819 9 494 109 
L 494 744 
Q 775 591 1075 516 
Q 1375 441 1709 441 
Q 2250 441 2565 725 
Q 2881 1009 2881 1497 
Q 2881 1984 2565 2268 
Q 2250 2553 1709 2553 
Q 1456 2553 1204 2497 
Q 953 2441 691 2322 
L 691 4666 
z
" transform="scale(0.015625)"/>
       </defs>
       <use xlink:href="#DejaVuSans-20"/>
       <use xlink:href="#DejaVuSans-35" x="31.787109"/>
      </g>
     </g>
    </g>
    <g id="xtick_6">
     <g id="line2d_6">
      <g>
       <use xlink:href="#m018e4e21be" x="248.856459" y="384.48" style="stroke: #000000; stroke-width: 0.8"/>
      </g>
     </g>
     <g id="text_6">
      <!--  6 -->
      <g transform="translate(244.086147 399.078438) scale(0.1 -0.1)">
       <defs>
        <path id="DejaVuSans-36" d="M 2113 2584 
Q 1688 2584 1439 2293 
Q 1191 2003 1191 1497 
Q 1191 994 1439 701 
Q 1688 409 2113 409 
Q 2538 409 2786 701 
Q 3034 994 3034 1497 
Q 3034 2003 2786 2293 
Q 2538 2584 2113 2584 
z
M 3366 4563 
L 3366 3988 
Q 3128 4100 2886 4159 
Q 2644 4219 2406 4219 
Q 1781 4219 1451 3797 
Q 1122 3375 1075 2522 
Q 1259 2794 1537 2939 
Q 1816 3084 2150 3084 
Q 2853 3084 3261 2657 
Q 3669 2231 3669 1497 
Q 3669 778 3244 343 
Q 2819 -91 2113 -91 
Q 1303 -91 875 529 
Q 447 1150 447 2328 
Q 447 3434 972 4092 
Q 1497 4750 2381 4750 
Q 2619 4750 2861 4703 
Q 3103 4656 3366 4563 
z
" transform="scale(0.015625)"/>
       </defs>
       <use xlink:href="#DejaVuSans-20"/>
       <use xlink:href="#DejaVuSans-36" x="31.787109"/>
      </g>
     </g>
    </g>
    <g id="xtick_7">
     <g id="line2d_7">
      <g>
       <use xlink:href="#m018e4e21be" x="275.555024" y="384.48" style="stroke: #000000; stroke-width: 0.8"/>
      </g>
     </g>
     <g id="text_7">
      <!--  7 -->
      <g transform="translate(270.784711 399.078438) scale(0.1 -0.1)">
       <defs>
        <path id="DejaVuSans-37" d="M 525 4666 
L 3525 4666 
L 3525 4397 
L 1831 0 
L 1172 0 
L 2766 4134 
L 525 4134 
L 525 4666 
z
" transform="scale(0.015625)"/>
       </defs>
       <use xlink:href="#DejaVuSans-20"/>
       <use xlink:href="#DejaVuSans-37" x="31.787109"/>
      </g>
     </g>
    </g>
    <g id="xtick_8">
     <g id="line2d_8">
      <g>
       <use xlink:href="#m018e4e21be" x="302.253589" y="384.48" style="stroke: #000000; stroke-width: 0.8"/>
      </g>
     </g>
     <g id="text_8">
      <!--  8 -->
      <g transform="translate(297.483276 399.078438) scale(0.1 -0.1)">
       <defs>
        <path id="DejaVuSans-38" d="M 2034 2216 
Q 1584 2216 1326 1975 
Q 1069 1734 1069 1313 
Q 1069 891 1326 650 
Q 1584 409 2034 409 
Q 2484 409 2743 651 
Q 3003 894 3003 1313 
Q 3003 1734 2745 1975 
Q 2488 2216 2034 2216 
z
M 1403 2484 
Q 997 2584 770 2862 
Q 544 3141 544 3541 
Q 544 4100 942 4425 
Q 1341 4750 2034 4750 
Q 2731 4750 3128 4425 
Q 3525 4100 3525 3541 
Q 3525 3141 3298 2862 
Q 3072 2584 2669 2484 
Q 3125 2378 3379 2068 
Q 3634 1759 3634 1313 
Q 3634 634 3220 271 
Q 2806 -91 2034 -91 
Q 1263 -91 848 271 
Q 434 634 434 1313 
Q 434 1759 690 2068 
Q 947 2378 1403 2484 
z
M 1172 3481 
Q 1172 3119 1398 2916 
Q 1625 2713 2034 2713 
Q 2441 2713 2670 2916 
Q 2900 3119 2900 3481 
Q 2900 3844 2670 4047 
Q 2441 4250 2034 4250 
Q 1625 4250 1398 4047 
Q 1172 3844 1172 3481 
z
" transform="scale(0.015625)"/>
       </defs>
       <use xlink:href="#DejaVuSans-20"/>
       <use xlink:href="#DejaVuSans-38" x="31.787109"/>
      </g>
     </g>
    </g>
    <g id="xtick_9">
     <g id="line2d_9">
      <g>
       <use xlink:href="#m018e4e21be" x="328.952153" y="384.48" style="stroke: #000000; stroke-width: 0.8"/>
      </g>
     </g>
     <g id="text_9">
      <!--  9 -->
      <g transform="translate(324.181841 399.078438) scale(0.1 -0.1)">
       <defs>
        <path id="DejaVuSans-39" d="M 703 97 
L 703 672 
Q 941 559 1184 500 
Q 1428 441 1663 441 
Q 2288 441 2617 861 
Q 2947 1281 2994 2138 
Q 2813 1869 2534 1725 
Q 2256 1581 1919 1581 
Q 1219 1581 811 2004 
Q 403 2428 403 3163 
Q 403 3881 828 4315 
Q 1253 4750 1959 4750 
Q 2769 4750 3195 4129 
Q 3622 3509 3622 2328 
Q 3622 1225 3098 567 
Q 2575 -91 1691 -91 
Q 1453 -91 1209 -44 
Q 966 3 703 97 
z
M 1959 2075 
Q 2384 2075 2632 2365 
Q 2881 2656 2881 3163 
Q 2881 3666 2632 3958 
Q 2384 4250 1959 4250 
Q 1534 4250 1286 3958 
Q 1038 3666 1038 3163 
Q 1038 2656 1286 2365 
Q 1534 2075 1959 2075 
z
" transform="scale(0.015625)"/>
       </defs>
       <use xlink:href="#DejaVuSans-20"/>
       <use xlink:href="#DejaVuSans-39" x="31.787109"/>
      </g>
     </g>
    </g>
    <g id="xtick_10">
     <g id="line2d_10">
      <g>
       <use xlink:href="#m018e4e21be" x="355.650718" y="384.48" style="stroke: #000000; stroke-width: 0.8"/>
      </g>
     </g>
     <g id="text_10">
      <!--  10 -->
      <g transform="translate(347.699155 399.078438) scale(0.1 -0.1)">
       <defs>
        <path id="DejaVuSans-30" d="M 2034 4250 
Q 1547 4250 1301 3770 
Q 1056 3291 1056 2328 
Q 1056 1369 1301 889 
Q 1547 409 2034 409 
Q 2525 409 2770 889 
Q 3016 1369 3016 2328 
Q 3016 3291 2770 3770 
Q 2525 4250 2034 4250 
z
M 2034 4750 
Q 2819 4750 3233 4129 
Q 3647 3509 3647 2328 
Q 3647 1150 3233 529 
Q 2819 -91 2034 -91 
Q 1250 -91 836 529 
Q 422 1150 422 2328 
Q 422 3509 836 4129 
Q 1250 4750 2034 4750 
z
" transform="scale(0.015625)"/>
       </defs>
       <use xlink:href="#DejaVuSans-20"/>
       <use xlink:href="#DejaVuSans-31" x="31.787109"/>
       <use xlink:href="#DejaVuSans-30" x="95.410156"/>
      </g>
     </g>
    </g>
    <g id="xtick_11">
     <g id="line2d_11">
      <g>
       <use xlink:href="#m018e4e21be" x="382.349282" y="384.48" style="stroke: #000000; stroke-width: 0.8"/>
      </g>
     </g>
     <g id="text_11">
      <!--  11 -->
      <g transform="translate(374.39772 399.078438) scale(0.1 -0.1)">
       <use xlink:href="#DejaVuSans-20"/>
       <use xlink:href="#DejaVuSans-31" x="31.787109"/>
       <use xlink:href="#DejaVuSans-31" x="95.410156"/>
      </g>
     </g>
    </g>
    <g id="xtick_12">
     <g id="line2d_12">
      <g>
       <use xlink:href="#m018e4e21be" x="409.047847" y="384.48" style="stroke: #000000; stroke-width: 0.8"/>
      </g>
     </g>
     <g id="text_12">
      <!--  12 -->
      <g transform="translate(401.096284 399.078438) scale(0.1 -0.1)">
       <use xlink:href="#DejaVuSans-20"/>
       <use xlink:href="#DejaVuSans-31" x="31.787109"/>
       <use xlink:href="#DejaVuSans-32" x="95.410156"/>
      </g>
     </g>
    </g>
    <g id="xtick_13">
     <g id="line2d_13">
      <g>
       <use xlink:href="#m018e4e21be" x="435.746411" y="384.48" style="stroke: #000000; stroke-width: 0.8"/>
      </g>
     </g>
     <g id="text_13">
      <!--  13 -->
      <g transform="translate(427.794849 399.078438) scale(0.1 -0.1)">
       <use xlink:href="#DejaVuSans-20"/>
       <use xlink:href="#DejaVuSans-31" x="31.787109"/>
       <use xlink:href="#DejaVuSans-33" x="95.410156"/>
      </g>
     </g>
    </g>
    <g id="xtick_14">
     <g id="line2d_14">
      <g>
       <use xlink:href="#m018e4e21be" x="462.444976" y="384.48" style="stroke: #000000; stroke-width: 0.8"/>
      </g>
     </g>
     <g id="text_14">
      <!--  14 -->
      <g transform="translate(454.493414 399.078438) scale(0.1 -0.1)">
       <use xlink:href="#DejaVuSans-20"/>
       <use xlink:href="#DejaVuSans-31" x="31.787109"/>
       <use xlink:href="#DejaVuSans-34" x="95.410156"/>
      </g>
     </g>
    </g>
    <g id="xtick_15">
     <g id="line2d_15">
      <g>
       <use xlink:href="#m018e4e21be" x="489.143541" y="384.48" style="stroke: #000000; stroke-width: 0.8"/>
      </g>
     </g>
     <g id="text_15">
      <!--  15 -->
      <g transform="translate(481.191978 399.078438) scale(0.1 -0.1)">
       <use xlink:href="#DejaVuSans-20"/>
       <use xlink:href="#DejaVuSans-31" x="31.787109"/>
       <use xlink:href="#DejaVuSans-35" x="95.410156"/>
      </g>
     </g>
    </g>
    <g id="xtick_16">
     <g id="line2d_16">
      <g>
       <use xlink:href="#m018e4e21be" x="515.842105" y="384.48" style="stroke: #000000; stroke-width: 0.8"/>
      </g>
     </g>
     <g id="text_16">
      <!--  16 -->
      <g transform="translate(507.890543 399.078438) scale(0.1 -0.1)">
       <use xlink:href="#DejaVuSans-20"/>
       <use xlink:href="#DejaVuSans-31" x="31.787109"/>
       <use xlink:href="#DejaVuSans-36" x="95.410156"/>
      </g>
     </g>
    </g>
    <g id="xtick_17">
     <g id="line2d_17">
      <g>
       <use xlink:href="#m018e4e21be" x="542.54067" y="384.48" style="stroke: #000000; stroke-width: 0.8"/>
      </g>
     </g>
     <g id="text_17">
      <!--  17 -->
      <g transform="translate(534.589107 399.078438) scale(0.1 -0.1)">
       <use xlink:href="#DejaVuSans-20"/>
       <use xlink:href="#DejaVuSans-31" x="31.787109"/>
       <use xlink:href="#DejaVuSans-37" x="95.410156"/>
      </g>
     </g>
    </g>
    <g id="xtick_18">
     <g id="line2d_18">
      <g>
       <use xlink:href="#m018e4e21be" x="569.239234" y="384.48" style="stroke: #000000; stroke-width: 0.8"/>
      </g>
     </g>
     <g id="text_18">
      <!--  18 -->
      <g transform="translate(561.287672 399.078438) scale(0.1 -0.1)">
       <use xlink:href="#DejaVuSans-20"/>
       <use xlink:href="#DejaVuSans-31" x="31.787109"/>
       <use xlink:href="#DejaVuSans-38" x="95.410156"/>
      </g>
     </g>
    </g>
    <g id="xtick_19">
     <g id="line2d_19">
      <g>
       <use xlink:href="#m018e4e21be" x="595.937799" y="384.48" style="stroke: #000000; stroke-width: 0.8"/>
      </g>
     </g>
     <g id="text_19">
      <!--  19 -->
      <g transform="translate(587.986237 399.078438) scale(0.1 -0.1)">
       <use xlink:href="#DejaVuSans-20"/>
       <use xlink:href="#DejaVuSans-31" x="31.787109"/>
       <use xlink:href="#DejaVuSans-39" x="95.410156"/>
      </g>
     </g>
    </g>
    <g id="xtick_20">
     <g id="line2d_20">
      <g>
       <use xlink:href="#m018e4e21be" x="622.636364" y="384.48" style="stroke: #000000; stroke-width: 0.8"/>
      </g>
     </g>
     <g id="text_20">
      <!--  20 -->
      <g transform="translate(614.684801 399.078438) scale(0.1 -0.1)">
       <use xlink:href="#DejaVuSans-20"/>
       <use xlink:href="#DejaVuSans-32" x="31.787109"/>
       <use xlink:href="#DejaVuSans-30" x="95.410156"/>
      </g>
     </g>
    </g>
    <g id="text_21">
     <!-- Groups -->
     <g transform="translate(347.610937 414.27625) scale(0.12 -0.12)">
      <defs>
       <path id="DejaVuSans-47" d="M 3809 666 
L 3809 1919 
L 2778 1919 
L 2778 2438 
L 4434 2438 
L 4434 434 
Q 4069 175 3628 42 
Q 3188 -91 2688 -91 
Q 1594 -91 976 548 
Q 359 1188 359 2328 
Q 359 3472 976 4111 
Q 1594 4750 2688 4750 
Q 3144 4750 3555 4637 
Q 3966 4525 4313 4306 
L 4313 3634 
Q 3963 3931 3569 4081 
Q 3175 4231 2741 4231 
Q 1884 4231 1454 3753 
Q 1025 3275 1025 2328 
Q 1025 1384 1454 906 
Q 1884 428 2741 428 
Q 3075 428 3337 486 
Q 3600 544 3809 666 
z
" transform="scale(0.015625)"/>
       <path id="DejaVuSans-72" d="M 2631 2963 
Q 2534 3019 2420 3045 
Q 2306 3072 2169 3072 
Q 1681 3072 1420 2755 
Q 1159 2438 1159 1844 
L 1159 0 
L 581 0 
L 581 3500 
L 1159 3500 
L 1159 2956 
Q 1341 3275 1631 3429 
Q 1922 3584 2338 3584 
Q 2397 3584 2469 3576 
Q 2541 3569 2628 3553 
L 2631 2963 
z
" transform="scale(0.015625)"/>
       <path id="DejaVuSans-6f" d="M 1959 3097 
Q 1497 3097 1228 2736 
Q 959 2375 959 1747 
Q 959 1119 1226 758 
Q 1494 397 1959 397 
Q 2419 397 2687 759 
Q 2956 1122 2956 1747 
Q 2956 2369 2687 2733 
Q 2419 3097 1959 3097 
z
M 1959 3584 
Q 2709 3584 3137 3096 
Q 3566 2609 3566 1747 
Q 3566 888 3137 398 
Q 2709 -91 1959 -91 
Q 1206 -91 779 398 
Q 353 888 353 1747 
Q 353 2609 779 3096 
Q 1206 3584 1959 3584 
z
" transform="scale(0.015625)"/>
       <path id="DejaVuSans-75" d="M 544 1381 
L 544 3500 
L 1119 3500 
L 1119 1403 
Q 1119 906 1312 657 
Q 1506 409 1894 409 
Q 2359 409 2629 706 
Q 2900 1003 2900 1516 
L 2900 3500 
L 3475 3500 
L 3475 0 
L 2900 0 
L 2900 538 
Q 2691 219 2414 64 
Q 2138 -91 1772 -91 
Q 1169 -91 856 284 
Q 544 659 544 1381 
z
M 1991 3584 
L 1991 3584 
z
" transform="scale(0.015625)"/>
       <path id="DejaVuSans-70" d="M 1159 525 
L 1159 -1331 
L 581 -1331 
L 581 3500 
L 1159 3500 
L 1159 2969 
Q 1341 3281 1617 3432 
Q 1894 3584 2278 3584 
Q 2916 3584 3314 3078 
Q 3713 2572 3713 1747 
Q 3713 922 3314 415 
Q 2916 -91 2278 -91 
Q 1894 -91 1617 61 
Q 1341 213 1159 525 
z
M 3116 1747 
Q 3116 2381 2855 2742 
Q 2594 3103 2138 3103 
Q 1681 3103 1420 2742 
Q 1159 2381 1159 1747 
Q 1159 1113 1420 752 
Q 1681 391 2138 391 
Q 2594 391 2855 752 
Q 3116 1113 3116 1747 
z
" transform="scale(0.015625)"/>
       <path id="DejaVuSans-73" d="M 2834 3397 
L 2834 2853 
Q 2591 2978 2328 3040 
Q 2066 3103 1784 3103 
Q 1356 3103 1142 2972 
Q 928 2841 928 2578 
Q 928 2378 1081 2264 
Q 1234 2150 1697 2047 
L 1894 2003 
Q 2506 1872 2764 1633 
Q 3022 1394 3022 966 
Q 3022 478 2636 193 
Q 2250 -91 1575 -91 
Q 1294 -91 989 -36 
Q 684 19 347 128 
L 347 722 
Q 666 556 975 473 
Q 1284 391 1588 391 
Q 1994 391 2212 530 
Q 2431 669 2431 922 
Q 2431 1156 2273 1281 
Q 2116 1406 1581 1522 
L 1381 1569 
Q 847 1681 609 1914 
Q 372 2147 372 2553 
Q 372 3047 722 3315 
Q 1072 3584 1716 3584 
Q 2034 3584 2315 3537 
Q 2597 3491 2834 3397 
z
" transform="scale(0.015625)"/>
      </defs>
      <use xlink:href="#DejaVuSans-47"/>
      <use xlink:href="#DejaVuSans-72" x="77.490234"/>
      <use xlink:href="#DejaVuSans-6f" x="116.353516"/>
      <use xlink:href="#DejaVuSans-75" x="177.535156"/>
      <use xlink:href="#DejaVuSans-70" x="240.914062"/>
      <use xlink:href="#DejaVuSans-73" x="304.390625"/>
     </g>
    </g>
   </g>
   <g id="matplotlib.axis_2">
    <g id="ytick_1">
     <g id="line2d_21">
      <defs>
       <path id="m9adce48fcd" d="M 0 0 
L -3.5 0 
" style="stroke: #000000; stroke-width: 0.8"/>
      </defs>
      <g>
       <use xlink:href="#m9adce48fcd" x="90" y="355.617628" style="stroke: #000000; stroke-width: 0.8"/>
      </g>
     </g>
     <g id="text_22">
      <!-- 0.2 -->
      <g transform="translate(67.096875 359.416847) scale(0.1 -0.1)">
       <defs>
        <path id="DejaVuSans-2e" d="M 684 794 
L 1344 794 
L 1344 0 
L 684 0 
L 684 794 
z
" transform="scale(0.015625)"/>
       </defs>
       <use xlink:href="#DejaVuSans-30"/>
       <use xlink:href="#DejaVuSans-2e" x="63.623047"/>
       <use xlink:href="#DejaVuSans-32" x="95.410156"/>
      </g>
     </g>
    </g>
    <g id="ytick_2">
     <g id="line2d_22">
      <g>
       <use xlink:href="#m9adce48fcd" x="90" y="284.606242" style="stroke: #000000; stroke-width: 0.8"/>
      </g>
     </g>
     <g id="text_23">
      <!-- 0.3 -->
      <g transform="translate(67.096875 288.40546) scale(0.1 -0.1)">
       <use xlink:href="#DejaVuSans-30"/>
       <use xlink:href="#DejaVuSans-2e" x="63.623047"/>
       <use xlink:href="#DejaVuSans-33" x="95.410156"/>
      </g>
     </g>
    </g>
    <g id="ytick_3">
     <g id="line2d_23">
      <g>
       <use xlink:href="#m9adce48fcd" x="90" y="213.594855" style="stroke: #000000; stroke-width: 0.8"/>
      </g>
     </g>
     <g id="text_24">
      <!-- 0.4 -->
      <g transform="translate(67.096875 217.394074) scale(0.1 -0.1)">
       <use xlink:href="#DejaVuSans-30"/>
       <use xlink:href="#DejaVuSans-2e" x="63.623047"/>
       <use xlink:href="#DejaVuSans-34" x="95.410156"/>
      </g>
     </g>
    </g>
    <g id="ytick_4">
     <g id="line2d_24">
      <g>
       <use xlink:href="#m9adce48fcd" x="90" y="142.583468" style="stroke: #000000; stroke-width: 0.8"/>
      </g>
     </g>
     <g id="text_25">
      <!-- 0.5 -->
      <g transform="translate(67.096875 146.382687) scale(0.1 -0.1)">
       <use xlink:href="#DejaVuSans-30"/>
       <use xlink:href="#DejaVuSans-2e" x="63.623047"/>
       <use xlink:href="#DejaVuSans-35" x="95.410156"/>
      </g>
     </g>
    </g>
    <g id="ytick_5">
     <g id="line2d_25">
      <g>
       <use xlink:href="#m9adce48fcd" x="90" y="71.572081" style="stroke: #000000; stroke-width: 0.8"/>
      </g>
     </g>
     <g id="text_26">
      <!-- 0.6 -->
      <g transform="translate(67.096875 75.3713) scale(0.1 -0.1)">
       <use xlink:href="#DejaVuSans-30"/>
       <use xlink:href="#DejaVuSans-2e" x="63.623047"/>
       <use xlink:href="#DejaVuSans-36" x="95.410156"/>
      </g>
     </g>
    </g>
    <g id="text_27">
     <!-- Macro F1 Score -->
     <g transform="translate(60.60125 264.200625) rotate(-90) scale(0.12 -0.12)">
      <defs>
       <path id="DejaVuSans-4d" d="M 628 4666 
L 1569 4666 
L 2759 1491 
L 3956 4666 
L 4897 4666 
L 4897 0 
L 4281 0 
L 4281 4097 
L 3078 897 
L 2444 897 
L 1241 4097 
L 1241 0 
L 628 0 
L 628 4666 
z
" transform="scale(0.015625)"/>
       <path id="DejaVuSans-61" d="M 2194 1759 
Q 1497 1759 1228 1600 
Q 959 1441 959 1056 
Q 959 750 1161 570 
Q 1363 391 1709 391 
Q 2188 391 2477 730 
Q 2766 1069 2766 1631 
L 2766 1759 
L 2194 1759 
z
M 3341 1997 
L 3341 0 
L 2766 0 
L 2766 531 
Q 2569 213 2275 61 
Q 1981 -91 1556 -91 
Q 1019 -91 701 211 
Q 384 513 384 1019 
Q 384 1609 779 1909 
Q 1175 2209 1959 2209 
L 2766 2209 
L 2766 2266 
Q 2766 2663 2505 2880 
Q 2244 3097 1772 3097 
Q 1472 3097 1187 3025 
Q 903 2953 641 2809 
L 641 3341 
Q 956 3463 1253 3523 
Q 1550 3584 1831 3584 
Q 2591 3584 2966 3190 
Q 3341 2797 3341 1997 
z
" transform="scale(0.015625)"/>
       <path id="DejaVuSans-63" d="M 3122 3366 
L 3122 2828 
Q 2878 2963 2633 3030 
Q 2388 3097 2138 3097 
Q 1578 3097 1268 2742 
Q 959 2388 959 1747 
Q 959 1106 1268 751 
Q 1578 397 2138 397 
Q 2388 397 2633 464 
Q 2878 531 3122 666 
L 3122 134 
Q 2881 22 2623 -34 
Q 2366 -91 2075 -91 
Q 1284 -91 818 406 
Q 353 903 353 1747 
Q 353 2603 823 3093 
Q 1294 3584 2113 3584 
Q 2378 3584 2631 3529 
Q 2884 3475 3122 3366 
z
" transform="scale(0.015625)"/>
       <path id="DejaVuSans-46" d="M 628 4666 
L 3309 4666 
L 3309 4134 
L 1259 4134 
L 1259 2759 
L 3109 2759 
L 3109 2228 
L 1259 2228 
L 1259 0 
L 628 0 
L 628 4666 
z
" transform="scale(0.015625)"/>
       <path id="DejaVuSans-53" d="M 3425 4513 
L 3425 3897 
Q 3066 4069 2747 4153 
Q 2428 4238 2131 4238 
Q 1616 4238 1336 4038 
Q 1056 3838 1056 3469 
Q 1056 3159 1242 3001 
Q 1428 2844 1947 2747 
L 2328 2669 
Q 3034 2534 3370 2195 
Q 3706 1856 3706 1288 
Q 3706 609 3251 259 
Q 2797 -91 1919 -91 
Q 1588 -91 1214 -16 
Q 841 59 441 206 
L 441 856 
Q 825 641 1194 531 
Q 1563 422 1919 422 
Q 2459 422 2753 634 
Q 3047 847 3047 1241 
Q 3047 1584 2836 1778 
Q 2625 1972 2144 2069 
L 1759 2144 
Q 1053 2284 737 2584 
Q 422 2884 422 3419 
Q 422 4038 858 4394 
Q 1294 4750 2059 4750 
Q 2388 4750 2728 4690 
Q 3069 4631 3425 4513 
z
" transform="scale(0.015625)"/>
       <path id="DejaVuSans-65" d="M 3597 1894 
L 3597 1613 
L 953 1613 
Q 991 1019 1311 708 
Q 1631 397 2203 397 
Q 2534 397 2845 478 
Q 3156 559 3463 722 
L 3463 178 
Q 3153 47 2828 -22 
Q 2503 -91 2169 -91 
Q 1331 -91 842 396 
Q 353 884 353 1716 
Q 353 2575 817 3079 
Q 1281 3584 2069 3584 
Q 2775 3584 3186 3129 
Q 3597 2675 3597 1894 
z
M 3022 2063 
Q 3016 2534 2758 2815 
Q 2500 3097 2075 3097 
Q 1594 3097 1305 2825 
Q 1016 2553 972 2059 
L 3022 2063 
z
" transform="scale(0.015625)"/>
      </defs>
      <use xlink:href="#DejaVuSans-4d"/>
      <use xlink:href="#DejaVuSans-61" x="86.279297"/>
      <use xlink:href="#DejaVuSans-63" x="147.558594"/>
      <use xlink:href="#DejaVuSans-72" x="202.539062"/>
      <use xlink:href="#DejaVuSans-6f" x="241.402344"/>
      <use xlink:href="#DejaVuSans-20" x="302.583984"/>
      <use xlink:href="#DejaVuSans-46" x="334.371094"/>
      <use xlink:href="#DejaVuSans-31" x="391.890625"/>
      <use xlink:href="#DejaVuSans-20" x="455.513672"/>
      <use xlink:href="#DejaVuSans-53" x="487.300781"/>
      <use xlink:href="#DejaVuSans-63" x="550.777344"/>
      <use xlink:href="#DejaVuSans-6f" x="605.757812"/>
      <use xlink:href="#DejaVuSans-72" x="666.939453"/>
      <use xlink:href="#DejaVuSans-65" x="705.802734"/>
     </g>
    </g>
   </g>
   <g id="line2d_26">
    <path d="M 115.363636 369.36 
L 142.062201 297.50092 
L 168.760766 251.431968 
L 195.45933 193.26862 
L 222.157895 163.581662 
L 248.856459 168.764168 
L 275.555024 166.259356 
L 302.253589 134.283804 
L 328.952153 115.39992 
L 355.650718 115.489894 
L 382.349282 110.364345 
L 409.047847 95.499867 
L 435.746411 100.932274 
L 462.444976 102.022474 
L 489.143541 116.978604 
L 515.842105 91.751888 
L 542.54067 66.96 
L 569.239234 91.117226 
L 595.937799 106.573731 
L 622.636364 122.091176 
" clip-path="url(#pab95976095)" style="fill: none; stroke: #1f77b4; stroke-width: 1.5; stroke-linecap: square"/>
    <defs>
     <path id="m74a4e39fdb" d="M 0 3 
C 0.795609 3 1.55874 2.683901 2.12132 2.12132 
C 2.683901 1.55874 3 0.795609 3 0 
C 3 -0.795609 2.683901 -1.55874 2.12132 -2.12132 
C 1.55874 -2.683901 0.795609 -3 0 -3 
C -0.795609 -3 -1.55874 -2.683901 -2.12132 -2.12132 
C -2.683901 -1.55874 -3 -0.795609 -3 0 
C -3 0.795609 -2.683901 1.55874 -2.12132 2.12132 
C -1.55874 2.683901 -0.795609 3 0 3 
z
" style="stroke: #1f77b4"/>
    </defs>
    <g clip-path="url(#pab95976095)">
     <use xlink:href="#m74a4e39fdb" x="115.363636" y="369.36" style="fill: #1f77b4; stroke: #1f77b4"/>
     <use xlink:href="#m74a4e39fdb" x="142.062201" y="297.50092" style="fill: #1f77b4; stroke: #1f77b4"/>
     <use xlink:href="#m74a4e39fdb" x="168.760766" y="251.431968" style="fill: #1f77b4; stroke: #1f77b4"/>
     <use xlink:href="#m74a4e39fdb" x="195.45933" y="193.26862" style="fill: #1f77b4; stroke: #1f77b4"/>
     <use xlink:href="#m74a4e39fdb" x="222.157895" y="163.581662" style="fill: #1f77b4; stroke: #1f77b4"/>
     <use xlink:href="#m74a4e39fdb" x="248.856459" y="168.764168" style="fill: #1f77b4; stroke: #1f77b4"/>
     <use xlink:href="#m74a4e39fdb" x="275.555024" y="166.259356" style="fill: #1f77b4; stroke: #1f77b4"/>
     <use xlink:href="#m74a4e39fdb" x="302.253589" y="134.283804" style="fill: #1f77b4; stroke: #1f77b4"/>
     <use xlink:href="#m74a4e39fdb" x="328.952153" y="115.39992" style="fill: #1f77b4; stroke: #1f77b4"/>
     <use xlink:href="#m74a4e39fdb" x="355.650718" y="115.489894" style="fill: #1f77b4; stroke: #1f77b4"/>
     <use xlink:href="#m74a4e39fdb" x="382.349282" y="110.364345" style="fill: #1f77b4; stroke: #1f77b4"/>
     <use xlink:href="#m74a4e39fdb" x="409.047847" y="95.499867" style="fill: #1f77b4; stroke: #1f77b4"/>
     <use xlink:href="#m74a4e39fdb" x="435.746411" y="100.932274" style="fill: #1f77b4; stroke: #1f77b4"/>
     <use xlink:href="#m74a4e39fdb" x="462.444976" y="102.022474" style="fill: #1f77b4; stroke: #1f77b4"/>
     <use xlink:href="#m74a4e39fdb" x="489.143541" y="116.978604" style="fill: #1f77b4; stroke: #1f77b4"/>
     <use xlink:href="#m74a4e39fdb" x="515.842105" y="91.751888" style="fill: #1f77b4; stroke: #1f77b4"/>
     <use xlink:href="#m74a4e39fdb" x="542.54067" y="66.96" style="fill: #1f77b4; stroke: #1f77b4"/>
     <use xlink:href="#m74a4e39fdb" x="569.239234" y="91.117226" style="fill: #1f77b4; stroke: #1f77b4"/>
     <use xlink:href="#m74a4e39fdb" x="595.937799" y="106.573731" style="fill: #1f77b4; stroke: #1f77b4"/>
     <use xlink:href="#m74a4e39fdb" x="622.636364" y="122.091176" style="fill: #1f77b4; stroke: #1f77b4"/>
    </g>
   </g>
   <g id="line2d_27">
    <path d="M 115.363636 168.270427 
L 142.062201 148.333315 
L 168.760766 151.562268 
L 195.45933 133.984134 
L 222.157895 150.372948 
L 248.856459 150.558992 
L 275.555024 134.199822 
L 302.253589 132.037988 
L 328.952153 135.885624 
L 355.650718 121.225341 
L 382.349282 107.588998 
L 409.047847 116.370224 
L 435.746411 104.332005 
L 462.444976 122.84801 
L 489.143541 114.094772 
L 515.842105 127.709005 
L 542.54067 117.972507 
L 569.239234 124.091832 
L 595.937799 127.272653 
L 622.636364 136.935003 
" clip-path="url(#pab95976095)" style="fill: none; stroke: #ff7f0e; stroke-width: 1.5; stroke-linecap: square"/>
    <defs>
     <path id="mec089eee68" d="M 0 3 
C 0.795609 3 1.55874 2.683901 2.12132 2.12132 
C 2.683901 1.55874 3 0.795609 3 0 
C 3 -0.795609 2.683901 -1.55874 2.12132 -2.12132 
C 1.55874 -2.683901 0.795609 -3 0 -3 
C -0.795609 -3 -1.55874 -2.683901 -2.12132 -2.12132 
C -2.683901 -1.55874 -3 -0.795609 -3 0 
C -3 0.795609 -2.683901 1.55874 -2.12132 2.12132 
C -1.55874 2.683901 -0.795609 3 0 3 
z
" style="stroke: #ff7f0e"/>
    </defs>
    <g clip-path="url(#pab95976095)">
     <use xlink:href="#mec089eee68" x="115.363636" y="168.270427" style="fill: #ff7f0e; stroke: #ff7f0e"/>
     <use xlink:href="#mec089eee68" x="142.062201" y="148.333315" style="fill: #ff7f0e; stroke: #ff7f0e"/>
     <use xlink:href="#mec089eee68" x="168.760766" y="151.562268" style="fill: #ff7f0e; stroke: #ff7f0e"/>
     <use xlink:href="#mec089eee68" x="195.45933" y="133.984134" style="fill: #ff7f0e; stroke: #ff7f0e"/>
     <use xlink:href="#mec089eee68" x="222.157895" y="150.372948" style="fill: #ff7f0e; stroke: #ff7f0e"/>
     <use xlink:href="#mec089eee68" x="248.856459" y="150.558992" style="fill: #ff7f0e; stroke: #ff7f0e"/>
     <use xlink:href="#mec089eee68" x="275.555024" y="134.199822" style="fill: #ff7f0e; stroke: #ff7f0e"/>
     <use xlink:href="#mec089eee68" x="302.253589" y="132.037988" style="fill: #ff7f0e; stroke: #ff7f0e"/>
     <use xlink:href="#mec089eee68" x="328.952153" y="135.885624" style="fill: #ff7f0e; stroke: #ff7f0e"/>
     <use xlink:href="#mec089eee68" x="355.650718" y="121.225341" style="fill: #ff7f0e; stroke: #ff7f0e"/>
     <use xlink:href="#mec089eee68" x="382.349282" y="107.588998" style="fill: #ff7f0e; stroke: #ff7f0e"/>
     <use xlink:href="#mec089eee68" x="409.047847" y="116.370224" style="fill: #ff7f0e; stroke: #ff7f0e"/>
     <use xlink:href="#mec089eee68" x="435.746411" y="104.332005" style="fill: #ff7f0e; stroke: #ff7f0e"/>
     <use xlink:href="#mec089eee68" x="462.444976" y="122.84801" style="fill: #ff7f0e; stroke: #ff7f0e"/>
     <use xlink:href="#mec089eee68" x="489.143541" y="114.094772" style="fill: #ff7f0e; stroke: #ff7f0e"/>
     <use xlink:href="#mec089eee68" x="515.842105" y="127.709005" style="fill: #ff7f0e; stroke: #ff7f0e"/>
     <use xlink:href="#mec089eee68" x="542.54067" y="117.972507" style="fill: #ff7f0e; stroke: #ff7f0e"/>
     <use xlink:href="#mec089eee68" x="569.239234" y="124.091832" style="fill: #ff7f0e; stroke: #ff7f0e"/>
     <use xlink:href="#mec089eee68" x="595.937799" y="127.272653" style="fill: #ff7f0e; stroke: #ff7f0e"/>
     <use xlink:href="#mec089eee68" x="622.636364" y="136.935003" style="fill: #ff7f0e; stroke: #ff7f0e"/>
    </g>
   </g>
   <g id="line2d_28">
    <path d="M 115.363636 113.725855 
L 142.062201 135.243719 
L 168.760766 123.609061 
L 195.45933 127.312843 
L 222.157895 125.721736 
L 248.856459 127.582968 
L 275.555024 143.408608 
L 302.253589 128.581641 
L 328.952153 126.270368 
L 355.650718 117.023006 
L 382.349282 120.55263 
L 409.047847 143.89051 
L 435.746411 122.645021 
L 462.444976 132.293164 
L 489.143541 130.117716 
L 515.842105 132.926992 
L 542.54067 124.280075 
L 569.239234 135.494039 
L 595.937799 139.389416 
L 622.636364 130.673713 
" clip-path="url(#pab95976095)" style="fill: none; stroke: #2ca02c; stroke-width: 1.5; stroke-linecap: square"/>
    <defs>
     <path id="m968140db7e" d="M 0 3 
C 0.795609 3 1.55874 2.683901 2.12132 2.12132 
C 2.683901 1.55874 3 0.795609 3 0 
C 3 -0.795609 2.683901 -1.55874 2.12132 -2.12132 
C 1.55874 -2.683901 0.795609 -3 0 -3 
C -0.795609 -3 -1.55874 -2.683901 -2.12132 -2.12132 
C -2.683901 -1.55874 -3 -0.795609 -3 0 
C -3 0.795609 -2.683901 1.55874 -2.12132 2.12132 
C -1.55874 2.683901 -0.795609 3 0 3 
z
" style="stroke: #2ca02c"/>
    </defs>
    <g clip-path="url(#pab95976095)">
     <use xlink:href="#m968140db7e" x="115.363636" y="113.725855" style="fill: #2ca02c; stroke: #2ca02c"/>
     <use xlink:href="#m968140db7e" x="142.062201" y="135.243719" style="fill: #2ca02c; stroke: #2ca02c"/>
     <use xlink:href="#m968140db7e" x="168.760766" y="123.609061" style="fill: #2ca02c; stroke: #2ca02c"/>
     <use xlink:href="#m968140db7e" x="195.45933" y="127.312843" style="fill: #2ca02c; stroke: #2ca02c"/>
     <use xlink:href="#m968140db7e" x="222.157895" y="125.721736" style="fill: #2ca02c; stroke: #2ca02c"/>
     <use xlink:href="#m968140db7e" x="248.856459" y="127.582968" style="fill: #2ca02c; stroke: #2ca02c"/>
     <use xlink:href="#m968140db7e" x="275.555024" y="143.408608" style="fill: #2ca02c; stroke: #2ca02c"/>
     <use xlink:href="#m968140db7e" x="302.253589" y="128.581641" style="fill: #2ca02c; stroke: #2ca02c"/>
     <use xlink:href="#m968140db7e" x="328.952153" y="126.270368" style="fill: #2ca02c; stroke: #2ca02c"/>
     <use xlink:href="#m968140db7e" x="355.650718" y="117.023006" style="fill: #2ca02c; stroke: #2ca02c"/>
     <use xlink:href="#m968140db7e" x="382.349282" y="120.55263" style="fill: #2ca02c; stroke: #2ca02c"/>
     <use xlink:href="#m968140db7e" x="409.047847" y="143.89051" style="fill: #2ca02c; stroke: #2ca02c"/>
     <use xlink:href="#m968140db7e" x="435.746411" y="122.645021" style="fill: #2ca02c; stroke: #2ca02c"/>
     <use xlink:href="#m968140db7e" x="462.444976" y="132.293164" style="fill: #2ca02c; stroke: #2ca02c"/>
     <use xlink:href="#m968140db7e" x="489.143541" y="130.117716" style="fill: #2ca02c; stroke: #2ca02c"/>
     <use xlink:href="#m968140db7e" x="515.842105" y="132.926992" style="fill: #2ca02c; stroke: #2ca02c"/>
     <use xlink:href="#m968140db7e" x="542.54067" y="124.280075" style="fill: #2ca02c; stroke: #2ca02c"/>
     <use xlink:href="#m968140db7e" x="569.239234" y="135.494039" style="fill: #2ca02c; stroke: #2ca02c"/>
     <use xlink:href="#m968140db7e" x="595.937799" y="139.389416" style="fill: #2ca02c; stroke: #2ca02c"/>
     <use xlink:href="#m968140db7e" x="622.636364" y="130.673713" style="fill: #2ca02c; stroke: #2ca02c"/>
    </g>
   </g>
   <g id="line2d_29">
    <path d="M 115.363636 153.222519 
L 142.062201 132.356503 
L 168.760766 144.754482 
L 195.45933 140.727487 
L 222.157895 145.147072 
L 248.856459 137.197931 
L 275.555024 122.182341 
L 302.253589 129.081516 
L 328.952153 151.323849 
L 355.650718 140.097561 
L 382.349282 123.725422 
L 409.047847 121.735377 
L 435.746411 125.716981 
L 462.444976 118.836818 
L 489.143541 135.07317 
L 515.842105 120.684198 
L 542.54067 111.670116 
L 569.239234 125.353855 
L 595.937799 141.882506 
L 622.636364 143.916153 
" clip-path="url(#pab95976095)" style="fill: none; stroke: #d62728; stroke-width: 1.5; stroke-linecap: square"/>
    <defs>
     <path id="m0a047ace5c" d="M 0 3 
C 0.795609 3 1.55874 2.683901 2.12132 2.12132 
C 2.683901 1.55874 3 0.795609 3 0 
C 3 -0.795609 2.683901 -1.55874 2.12132 -2.12132 
C 1.55874 -2.683901 0.795609 -3 0 -3 
C -0.795609 -3 -1.55874 -2.683901 -2.12132 -2.12132 
C -2.683901 -1.55874 -3 -0.795609 -3 0 
C -3 0.795609 -2.683901 1.55874 -2.12132 2.12132 
C -1.55874 2.683901 -0.795609 3 0 3 
z
" style="stroke: #d62728"/>
    </defs>
    <g clip-path="url(#pab95976095)">
     <use xlink:href="#m0a047ace5c" x="115.363636" y="153.222519" style="fill: #d62728; stroke: #d62728"/>
     <use xlink:href="#m0a047ace5c" x="142.062201" y="132.356503" style="fill: #d62728; stroke: #d62728"/>
     <use xlink:href="#m0a047ace5c" x="168.760766" y="144.754482" style="fill: #d62728; stroke: #d62728"/>
     <use xlink:href="#m0a047ace5c" x="195.45933" y="140.727487" style="fill: #d62728; stroke: #d62728"/>
     <use xlink:href="#m0a047ace5c" x="222.157895" y="145.147072" style="fill: #d62728; stroke: #d62728"/>
     <use xlink:href="#m0a047ace5c" x="248.856459" y="137.197931" style="fill: #d62728; stroke: #d62728"/>
     <use xlink:href="#m0a047ace5c" x="275.555024" y="122.182341" style="fill: #d62728; stroke: #d62728"/>
     <use xlink:href="#m0a047ace5c" x="302.253589" y="129.081516" style="fill: #d62728; stroke: #d62728"/>
     <use xlink:href="#m0a047ace5c" x="328.952153" y="151.323849" style="fill: #d62728; stroke: #d62728"/>
     <use xlink:href="#m0a047ace5c" x="355.650718" y="140.097561" style="fill: #d62728; stroke: #d62728"/>
     <use xlink:href="#m0a047ace5c" x="382.349282" y="123.725422" style="fill: #d62728; stroke: #d62728"/>
     <use xlink:href="#m0a047ace5c" x="409.047847" y="121.735377" style="fill: #d62728; stroke: #d62728"/>
     <use xlink:href="#m0a047ace5c" x="435.746411" y="125.716981" style="fill: #d62728; stroke: #d62728"/>
     <use xlink:href="#m0a047ace5c" x="462.444976" y="118.836818" style="fill: #d62728; stroke: #d62728"/>
     <use xlink:href="#m0a047ace5c" x="489.143541" y="135.07317" style="fill: #d62728; stroke: #d62728"/>
     <use xlink:href="#m0a047ace5c" x="515.842105" y="120.684198" style="fill: #d62728; stroke: #d62728"/>
     <use xlink:href="#m0a047ace5c" x="542.54067" y="111.670116" style="fill: #d62728; stroke: #d62728"/>
     <use xlink:href="#m0a047ace5c" x="569.239234" y="125.353855" style="fill: #d62728; stroke: #d62728"/>
     <use xlink:href="#m0a047ace5c" x="595.937799" y="141.882506" style="fill: #d62728; stroke: #d62728"/>
     <use xlink:href="#m0a047ace5c" x="622.636364" y="143.916153" style="fill: #d62728; stroke: #d62728"/>
    </g>
   </g>
   <g id="line2d_30">
    <path d="M 115.363636 130.481919 
L 142.062201 153.07495 
L 168.760766 149.980315 
L 195.45933 132.429783 
L 222.157895 148.181224 
L 248.856459 132.435817 
L 275.555024 127.306883 
L 302.253589 113.468623 
L 328.952153 118.42861 
L 355.650718 121.720356 
L 382.349282 131.699116 
L 409.047847 134.786371 
L 435.746411 140.269275 
L 462.444976 120.259242 
L 489.143541 130.849065 
L 515.842105 135.865203 
L 542.54067 122.975013 
L 569.239234 124.285082 
L 595.937799 119.144635 
L 622.636364 114.44932 
" clip-path="url(#pab95976095)" style="fill: none; stroke: #9467bd; stroke-width: 1.5; stroke-linecap: square"/>
    <defs>
     <path id="m3227dc749e" d="M 0 3 
C 0.795609 3 1.55874 2.683901 2.12132 2.12132 
C 2.683901 1.55874 3 0.795609 3 0 
C 3 -0.795609 2.683901 -1.55874 2.12132 -2.12132 
C 1.55874 -2.683901 0.795609 -3 0 -3 
C -0.795609 -3 -1.55874 -2.683901 -2.12132 -2.12132 
C -2.683901 -1.55874 -3 -0.795609 -3 0 
C -3 0.795609 -2.683901 1.55874 -2.12132 2.12132 
C -1.55874 2.683901 -0.795609 3 0 3 
z
" style="stroke: #9467bd"/>
    </defs>
    <g clip-path="url(#pab95976095)">
     <use xlink:href="#m3227dc749e" x="115.363636" y="130.481919" style="fill: #9467bd; stroke: #9467bd"/>
     <use xlink:href="#m3227dc749e" x="142.062201" y="153.07495" style="fill: #9467bd; stroke: #9467bd"/>
     <use xlink:href="#m3227dc749e" x="168.760766" y="149.980315" style="fill: #9467bd; stroke: #9467bd"/>
     <use xlink:href="#m3227dc749e" x="195.45933" y="132.429783" style="fill: #9467bd; stroke: #9467bd"/>
     <use xlink:href="#m3227dc749e" x="222.157895" y="148.181224" style="fill: #9467bd; stroke: #9467bd"/>
     <use xlink:href="#m3227dc749e" x="248.856459" y="132.435817" style="fill: #9467bd; stroke: #9467bd"/>
     <use xlink:href="#m3227dc749e" x="275.555024" y="127.306883" style="fill: #9467bd; stroke: #9467bd"/>
     <use xlink:href="#m3227dc749e" x="302.253589" y="113.468623" style="fill: #9467bd; stroke: #9467bd"/>
     <use xlink:href="#m3227dc749e" x="328.952153" y="118.42861" style="fill: #9467bd; stroke: #9467bd"/>
     <use xlink:href="#m3227dc749e" x="355.650718" y="121.720356" style="fill: #9467bd; stroke: #9467bd"/>
     <use xlink:href="#m3227dc749e" x="382.349282" y="131.699116" style="fill: #9467bd; stroke: #9467bd"/>
     <use xlink:href="#m3227dc749e" x="409.047847" y="134.786371" style="fill: #9467bd; stroke: #9467bd"/>
     <use xlink:href="#m3227dc749e" x="435.746411" y="140.269275" style="fill: #9467bd; stroke: #9467bd"/>
     <use xlink:href="#m3227dc749e" x="462.444976" y="120.259242" style="fill: #9467bd; stroke: #9467bd"/>
     <use xlink:href="#m3227dc749e" x="489.143541" y="130.849065" style="fill: #9467bd; stroke: #9467bd"/>
     <use xlink:href="#m3227dc749e" x="515.842105" y="135.865203" style="fill: #9467bd; stroke: #9467bd"/>
     <use xlink:href="#m3227dc749e" x="542.54067" y="122.975013" style="fill: #9467bd; stroke: #9467bd"/>
     <use xlink:href="#m3227dc749e" x="569.239234" y="124.285082" style="fill: #9467bd; stroke: #9467bd"/>
     <use xlink:href="#m3227dc749e" x="595.937799" y="119.144635" style="fill: #9467bd; stroke: #9467bd"/>
     <use xlink:href="#m3227dc749e" x="622.636364" y="114.44932" style="fill: #9467bd; stroke: #9467bd"/>
    </g>
   </g>
   <g id="line2d_31">
    <path d="M 115.363636 152.323179 
L 142.062201 126.6117 
L 168.760766 116.671838 
L 195.45933 139.742528 
L 222.157895 126.07243 
L 248.856459 126.230816 
L 275.555024 114.823642 
L 302.253589 129.908837 
L 328.952153 99.253875 
L 355.650718 119.842491 
L 382.349282 136.266964 
L 409.047847 133.57543 
L 435.746411 135.717124 
L 462.444976 122.810101 
L 489.143541 136.788634 
L 515.842105 128.521733 
L 542.54067 129.382823 
L 569.239234 142.183967 
L 595.937799 134.033 
L 622.636364 151.78897 
" clip-path="url(#pab95976095)" style="fill: none; stroke: #8c564b; stroke-width: 1.5; stroke-linecap: square"/>
    <defs>
     <path id="m8bce065042" d="M 0 3 
C 0.795609 3 1.55874 2.683901 2.12132 2.12132 
C 2.683901 1.55874 3 0.795609 3 0 
C 3 -0.795609 2.683901 -1.55874 2.12132 -2.12132 
C 1.55874 -2.683901 0.795609 -3 0 -3 
C -0.795609 -3 -1.55874 -2.683901 -2.12132 -2.12132 
C -2.683901 -1.55874 -3 -0.795609 -3 0 
C -3 0.795609 -2.683901 1.55874 -2.12132 2.12132 
C -1.55874 2.683901 -0.795609 3 0 3 
z
" style="stroke: #8c564b"/>
    </defs>
    <g clip-path="url(#pab95976095)">
     <use xlink:href="#m8bce065042" x="115.363636" y="152.323179" style="fill: #8c564b; stroke: #8c564b"/>
     <use xlink:href="#m8bce065042" x="142.062201" y="126.6117" style="fill: #8c564b; stroke: #8c564b"/>
     <use xlink:href="#m8bce065042" x="168.760766" y="116.671838" style="fill: #8c564b; stroke: #8c564b"/>
     <use xlink:href="#m8bce065042" x="195.45933" y="139.742528" style="fill: #8c564b; stroke: #8c564b"/>
     <use xlink:href="#m8bce065042" x="222.157895" y="126.07243" style="fill: #8c564b; stroke: #8c564b"/>
     <use xlink:href="#m8bce065042" x="248.856459" y="126.230816" style="fill: #8c564b; stroke: #8c564b"/>
     <use xlink:href="#m8bce065042" x="275.555024" y="114.823642" style="fill: #8c564b; stroke: #8c564b"/>
     <use xlink:href="#m8bce065042" x="302.253589" y="129.908837" style="fill: #8c564b; stroke: #8c564b"/>
     <use xlink:href="#m8bce065042" x="328.952153" y="99.253875" style="fill: #8c564b; stroke: #8c564b"/>
     <use xlink:href="#m8bce065042" x="355.650718" y="119.842491" style="fill: #8c564b; stroke: #8c564b"/>
     <use xlink:href="#m8bce065042" x="382.349282" y="136.266964" style="fill: #8c564b; stroke: #8c564b"/>
     <use xlink:href="#m8bce065042" x="409.047847" y="133.57543" style="fill: #8c564b; stroke: #8c564b"/>
     <use xlink:href="#m8bce065042" x="435.746411" y="135.717124" style="fill: #8c564b; stroke: #8c564b"/>
     <use xlink:href="#m8bce065042" x="462.444976" y="122.810101" style="fill: #8c564b; stroke: #8c564b"/>
     <use xlink:href="#m8bce065042" x="489.143541" y="136.788634" style="fill: #8c564b; stroke: #8c564b"/>
     <use xlink:href="#m8bce065042" x="515.842105" y="128.521733" style="fill: #8c564b; stroke: #8c564b"/>
     <use xlink:href="#m8bce065042" x="542.54067" y="129.382823" style="fill: #8c564b; stroke: #8c564b"/>
     <use xlink:href="#m8bce065042" x="569.239234" y="142.183967" style="fill: #8c564b; stroke: #8c564b"/>
     <use xlink:href="#m8bce065042" x="595.937799" y="134.033" style="fill: #8c564b; stroke: #8c564b"/>
     <use xlink:href="#m8bce065042" x="622.636364" y="151.78897" style="fill: #8c564b; stroke: #8c564b"/>
    </g>
   </g>
   <g id="line2d_32">
    <path d="M 115.363636 126.799542 
L 142.062201 130.779683 
L 168.760766 119.417202 
L 195.45933 122.019913 
L 222.157895 122.49798 
L 248.856459 119.155781 
L 275.555024 124.507922 
L 302.253589 114.496445 
L 328.952153 128.009806 
L 355.650718 127.391128 
L 382.349282 128.047479 
L 409.047847 133.38274 
L 435.746411 141.511553 
L 462.444976 136.702031 
L 489.143541 142.23784 
L 515.842105 137.07602 
L 542.54067 140.28536 
L 569.239234 142.232341 
L 595.937799 129.377855 
L 622.636364 135.563143 
" clip-path="url(#pab95976095)" style="fill: none; stroke: #e377c2; stroke-width: 1.5; stroke-linecap: square"/>
    <defs>
     <path id="m3b5be87c8c" d="M 0 3 
C 0.795609 3 1.55874 2.683901 2.12132 2.12132 
C 2.683901 1.55874 3 0.795609 3 0 
C 3 -0.795609 2.683901 -1.55874 2.12132 -2.12132 
C 1.55874 -2.683901 0.795609 -3 0 -3 
C -0.795609 -3 -1.55874 -2.683901 -2.12132 -2.12132 
C -2.683901 -1.55874 -3 -0.795609 -3 0 
C -3 0.795609 -2.683901 1.55874 -2.12132 2.12132 
C -1.55874 2.683901 -0.795609 3 0 3 
z
" style="stroke: #e377c2"/>
    </defs>
    <g clip-path="url(#pab95976095)">
     <use xlink:href="#m3b5be87c8c" x="115.363636" y="126.799542" style="fill: #e377c2; stroke: #e377c2"/>
     <use xlink:href="#m3b5be87c8c" x="142.062201" y="130.779683" style="fill: #e377c2; stroke: #e377c2"/>
     <use xlink:href="#m3b5be87c8c" x="168.760766" y="119.417202" style="fill: #e377c2; stroke: #e377c2"/>
     <use xlink:href="#m3b5be87c8c" x="195.45933" y="122.019913" style="fill: #e377c2; stroke: #e377c2"/>
     <use xlink:href="#m3b5be87c8c" x="222.157895" y="122.49798" style="fill: #e377c2; stroke: #e377c2"/>
     <use xlink:href="#m3b5be87c8c" x="248.856459" y="119.155781" style="fill: #e377c2; stroke: #e377c2"/>
     <use xlink:href="#m3b5be87c8c" x="275.555024" y="124.507922" style="fill: #e377c2; stroke: #e377c2"/>
     <use xlink:href="#m3b5be87c8c" x="302.253589" y="114.496445" style="fill: #e377c2; stroke: #e377c2"/>
     <use xlink:href="#m3b5be87c8c" x="328.952153" y="128.009806" style="fill: #e377c2; stroke: #e377c2"/>
     <use xlink:href="#m3b5be87c8c" x="355.650718" y="127.391128" style="fill: #e377c2; stroke: #e377c2"/>
     <use xlink:href="#m3b5be87c8c" x="382.349282" y="128.047479" style="fill: #e377c2; stroke: #e377c2"/>
     <use xlink:href="#m3b5be87c8c" x="409.047847" y="133.38274" style="fill: #e377c2; stroke: #e377c2"/>
     <use xlink:href="#m3b5be87c8c" x="435.746411" y="141.511553" style="fill: #e377c2; stroke: #e377c2"/>
     <use xlink:href="#m3b5be87c8c" x="462.444976" y="136.702031" style="fill: #e377c2; stroke: #e377c2"/>
     <use xlink:href="#m3b5be87c8c" x="489.143541" y="142.23784" style="fill: #e377c2; stroke: #e377c2"/>
     <use xlink:href="#m3b5be87c8c" x="515.842105" y="137.07602" style="fill: #e377c2; stroke: #e377c2"/>
     <use xlink:href="#m3b5be87c8c" x="542.54067" y="140.28536" style="fill: #e377c2; stroke: #e377c2"/>
     <use xlink:href="#m3b5be87c8c" x="569.239234" y="142.232341" style="fill: #e377c2; stroke: #e377c2"/>
     <use xlink:href="#m3b5be87c8c" x="595.937799" y="129.377855" style="fill: #e377c2; stroke: #e377c2"/>
     <use xlink:href="#m3b5be87c8c" x="622.636364" y="135.563143" style="fill: #e377c2; stroke: #e377c2"/>
    </g>
   </g>
   <g id="line2d_33">
    <path d="M 115.363636 142.03267 
L 142.062201 135.0372 
L 168.760766 141.439137 
L 195.45933 129.600536 
L 222.157895 150.838607 
L 248.856459 129.058231 
L 275.555024 156.370299 
L 302.253589 128.064128 
L 328.952153 126.236572 
L 355.650718 111.366512 
L 382.349282 139.061223 
L 409.047847 122.69368 
L 435.746411 123.852111 
L 462.444976 124.231364 
L 489.143541 114.738683 
L 515.842105 123.201992 
L 542.54067 128.857426 
L 569.239234 138.017332 
L 595.937799 128.48758 
L 622.636364 149.714565 
" clip-path="url(#pab95976095)" style="fill: none; stroke: #7f7f7f; stroke-width: 1.5; stroke-linecap: square"/>
    <defs>
     <path id="m038f1f6049" d="M 0 3 
C 0.795609 3 1.55874 2.683901 2.12132 2.12132 
C 2.683901 1.55874 3 0.795609 3 0 
C 3 -0.795609 2.683901 -1.55874 2.12132 -2.12132 
C 1.55874 -2.683901 0.795609 -3 0 -3 
C -0.795609 -3 -1.55874 -2.683901 -2.12132 -2.12132 
C -2.683901 -1.55874 -3 -0.795609 -3 0 
C -3 0.795609 -2.683901 1.55874 -2.12132 2.12132 
C -1.55874 2.683901 -0.795609 3 0 3 
z
" style="stroke: #7f7f7f"/>
    </defs>
    <g clip-path="url(#pab95976095)">
     <use xlink:href="#m038f1f6049" x="115.363636" y="142.03267" style="fill: #7f7f7f; stroke: #7f7f7f"/>
     <use xlink:href="#m038f1f6049" x="142.062201" y="135.0372" style="fill: #7f7f7f; stroke: #7f7f7f"/>
     <use xlink:href="#m038f1f6049" x="168.760766" y="141.439137" style="fill: #7f7f7f; stroke: #7f7f7f"/>
     <use xlink:href="#m038f1f6049" x="195.45933" y="129.600536" style="fill: #7f7f7f; stroke: #7f7f7f"/>
     <use xlink:href="#m038f1f6049" x="222.157895" y="150.838607" style="fill: #7f7f7f; stroke: #7f7f7f"/>
     <use xlink:href="#m038f1f6049" x="248.856459" y="129.058231" style="fill: #7f7f7f; stroke: #7f7f7f"/>
     <use xlink:href="#m038f1f6049" x="275.555024" y="156.370299" style="fill: #7f7f7f; stroke: #7f7f7f"/>
     <use xlink:href="#m038f1f6049" x="302.253589" y="128.064128" style="fill: #7f7f7f; stroke: #7f7f7f"/>
     <use xlink:href="#m038f1f6049" x="328.952153" y="126.236572" style="fill: #7f7f7f; stroke: #7f7f7f"/>
     <use xlink:href="#m038f1f6049" x="355.650718" y="111.366512" style="fill: #7f7f7f; stroke: #7f7f7f"/>
     <use xlink:href="#m038f1f6049" x="382.349282" y="139.061223" style="fill: #7f7f7f; stroke: #7f7f7f"/>
     <use xlink:href="#m038f1f6049" x="409.047847" y="122.69368" style="fill: #7f7f7f; stroke: #7f7f7f"/>
     <use xlink:href="#m038f1f6049" x="435.746411" y="123.852111" style="fill: #7f7f7f; stroke: #7f7f7f"/>
     <use xlink:href="#m038f1f6049" x="462.444976" y="124.231364" style="fill: #7f7f7f; stroke: #7f7f7f"/>
     <use xlink:href="#m038f1f6049" x="489.143541" y="114.738683" style="fill: #7f7f7f; stroke: #7f7f7f"/>
     <use xlink:href="#m038f1f6049" x="515.842105" y="123.201992" style="fill: #7f7f7f; stroke: #7f7f7f"/>
     <use xlink:href="#m038f1f6049" x="542.54067" y="128.857426" style="fill: #7f7f7f; stroke: #7f7f7f"/>
     <use xlink:href="#m038f1f6049" x="569.239234" y="138.017332" style="fill: #7f7f7f; stroke: #7f7f7f"/>
     <use xlink:href="#m038f1f6049" x="595.937799" y="128.48758" style="fill: #7f7f7f; stroke: #7f7f7f"/>
     <use xlink:href="#m038f1f6049" x="622.636364" y="149.714565" style="fill: #7f7f7f; stroke: #7f7f7f"/>
    </g>
   </g>
   <g id="patch_3">
    <path d="M 90 384.48 
L 90 51.84 
" style="fill: none; stroke: #000000; stroke-width: 0.8; stroke-linejoin: miter; stroke-linecap: square"/>
   </g>
   <g id="patch_4">
    <path d="M 648 384.48 
L 648 51.84 
" style="fill: none; stroke: #000000; stroke-width: 0.8; stroke-linejoin: miter; stroke-linecap: square"/>
   </g>
   <g id="patch_5">
    <path d="M 90 384.48 
L 648 384.48 
" style="fill: none; stroke: #000000; stroke-width: 0.8; stroke-linejoin: miter; stroke-linecap: square"/>
   </g>
   <g id="patch_6">
    <path d="M 90 51.84 
L 648 51.84 
" style="fill: none; stroke: #000000; stroke-width: 0.8; stroke-linejoin: miter; stroke-linecap: square"/>
   </g>
   <g id="text_28">
    <!-- Macro F1 Scores by Group for Candidate Attributes -->
    <g transform="translate(190.654219 45.84) scale(0.14 -0.14)">
     <defs>
      <path id="DejaVuSans-62" d="M 3116 1747 
Q 3116 2381 2855 2742 
Q 2594 3103 2138 3103 
Q 1681 3103 1420 2742 
Q 1159 2381 1159 1747 
Q 1159 1113 1420 752 
Q 1681 391 2138 391 
Q 2594 391 2855 752 
Q 3116 1113 3116 1747 
z
M 1159 2969 
Q 1341 3281 1617 3432 
Q 1894 3584 2278 3584 
Q 2916 3584 3314 3078 
Q 3713 2572 3713 1747 
Q 3713 922 3314 415 
Q 2916 -91 2278 -91 
Q 1894 -91 1617 61 
Q 1341 213 1159 525 
L 1159 0 
L 581 0 
L 581 4863 
L 1159 4863 
L 1159 2969 
z
" transform="scale(0.015625)"/>
      <path id="DejaVuSans-79" d="M 2059 -325 
Q 1816 -950 1584 -1140 
Q 1353 -1331 966 -1331 
L 506 -1331 
L 506 -850 
L 844 -850 
Q 1081 -850 1212 -737 
Q 1344 -625 1503 -206 
L 1606 56 
L 191 3500 
L 800 3500 
L 1894 763 
L 2988 3500 
L 3597 3500 
L 2059 -325 
z
" transform="scale(0.015625)"/>
      <path id="DejaVuSans-66" d="M 2375 4863 
L 2375 4384 
L 1825 4384 
Q 1516 4384 1395 4259 
Q 1275 4134 1275 3809 
L 1275 3500 
L 2222 3500 
L 2222 3053 
L 1275 3053 
L 1275 0 
L 697 0 
L 697 3053 
L 147 3053 
L 147 3500 
L 697 3500 
L 697 3744 
Q 697 4328 969 4595 
Q 1241 4863 1831 4863 
L 2375 4863 
z
" transform="scale(0.015625)"/>
      <path id="DejaVuSans-43" d="M 4122 4306 
L 4122 3641 
Q 3803 3938 3442 4084 
Q 3081 4231 2675 4231 
Q 1875 4231 1450 3742 
Q 1025 3253 1025 2328 
Q 1025 1406 1450 917 
Q 1875 428 2675 428 
Q 3081 428 3442 575 
Q 3803 722 4122 1019 
L 4122 359 
Q 3791 134 3420 21 
Q 3050 -91 2638 -91 
Q 1578 -91 968 557 
Q 359 1206 359 2328 
Q 359 3453 968 4101 
Q 1578 4750 2638 4750 
Q 3056 4750 3426 4639 
Q 3797 4528 4122 4306 
z
" transform="scale(0.015625)"/>
      <path id="DejaVuSans-6e" d="M 3513 2113 
L 3513 0 
L 2938 0 
L 2938 2094 
Q 2938 2591 2744 2837 
Q 2550 3084 2163 3084 
Q 1697 3084 1428 2787 
Q 1159 2491 1159 1978 
L 1159 0 
L 581 0 
L 581 3500 
L 1159 3500 
L 1159 2956 
Q 1366 3272 1645 3428 
Q 1925 3584 2291 3584 
Q 2894 3584 3203 3211 
Q 3513 2838 3513 2113 
z
" transform="scale(0.015625)"/>
      <path id="DejaVuSans-64" d="M 2906 2969 
L 2906 4863 
L 3481 4863 
L 3481 0 
L 2906 0 
L 2906 525 
Q 2725 213 2448 61 
Q 2172 -91 1784 -91 
Q 1150 -91 751 415 
Q 353 922 353 1747 
Q 353 2572 751 3078 
Q 1150 3584 1784 3584 
Q 2172 3584 2448 3432 
Q 2725 3281 2906 2969 
z
M 947 1747 
Q 947 1113 1208 752 
Q 1469 391 1925 391 
Q 2381 391 2643 752 
Q 2906 1113 2906 1747 
Q 2906 2381 2643 2742 
Q 2381 3103 1925 3103 
Q 1469 3103 1208 2742 
Q 947 2381 947 1747 
z
" transform="scale(0.015625)"/>
      <path id="DejaVuSans-69" d="M 603 3500 
L 1178 3500 
L 1178 0 
L 603 0 
L 603 3500 
z
M 603 4863 
L 1178 4863 
L 1178 4134 
L 603 4134 
L 603 4863 
z
" transform="scale(0.015625)"/>
      <path id="DejaVuSans-74" d="M 1172 4494 
L 1172 3500 
L 2356 3500 
L 2356 3053 
L 1172 3053 
L 1172 1153 
Q 1172 725 1289 603 
Q 1406 481 1766 481 
L 2356 481 
L 2356 0 
L 1766 0 
Q 1100 0 847 248 
Q 594 497 594 1153 
L 594 3053 
L 172 3053 
L 172 3500 
L 594 3500 
L 594 4494 
L 1172 4494 
z
" transform="scale(0.015625)"/>
      <path id="DejaVuSans-41" d="M 2188 4044 
L 1331 1722 
L 3047 1722 
L 2188 4044 
z
M 1831 4666 
L 2547 4666 
L 4325 0 
L 3669 0 
L 3244 1197 
L 1141 1197 
L 716 0 
L 50 0 
L 1831 4666 
z
" transform="scale(0.015625)"/>
     </defs>
     <use xlink:href="#DejaVuSans-4d"/>
     <use xlink:href="#DejaVuSans-61" x="86.279297"/>
     <use xlink:href="#DejaVuSans-63" x="147.558594"/>
     <use xlink:href="#DejaVuSans-72" x="202.539062"/>
     <use xlink:href="#DejaVuSans-6f" x="241.402344"/>
     <use xlink:href="#DejaVuSans-20" x="302.583984"/>
     <use xlink:href="#DejaVuSans-46" x="334.371094"/>
     <use xlink:href="#DejaVuSans-31" x="391.890625"/>
     <use xlink:href="#DejaVuSans-20" x="455.513672"/>
     <use xlink:href="#DejaVuSans-53" x="487.300781"/>
     <use xlink:href="#DejaVuSans-63" x="550.777344"/>
     <use xlink:href="#DejaVuSans-6f" x="605.757812"/>
     <use xlink:href="#DejaVuSans-72" x="666.939453"/>
     <use xlink:href="#DejaVuSans-65" x="705.802734"/>
     <use xlink:href="#DejaVuSans-73" x="767.326172"/>
     <use xlink:href="#DejaVuSans-20" x="819.425781"/>
     <use xlink:href="#DejaVuSans-62" x="851.212891"/>
     <use xlink:href="#DejaVuSans-79" x="914.689453"/>
     <use xlink:href="#DejaVuSans-20" x="973.869141"/>
     <use xlink:href="#DejaVuSans-47" x="1005.65625"/>
     <use xlink:href="#DejaVuSans-72" x="1083.146484"/>
     <use xlink:href="#DejaVuSans-6f" x="1122.009766"/>
     <use xlink:href="#DejaVuSans-75" x="1183.191406"/>
     <use xlink:href="#DejaVuSans-70" x="1246.570312"/>
     <use xlink:href="#DejaVuSans-20" x="1310.046875"/>
     <use xlink:href="#DejaVuSans-66" x="1341.833984"/>
     <use xlink:href="#DejaVuSans-6f" x="1377.039062"/>
     <use xlink:href="#DejaVuSans-72" x="1438.220703"/>
     <use xlink:href="#DejaVuSans-20" x="1479.333984"/>
     <use xlink:href="#DejaVuSans-43" x="1511.121094"/>
     <use xlink:href="#DejaVuSans-61" x="1580.945312"/>
     <use xlink:href="#DejaVuSans-6e" x="1642.224609"/>
     <use xlink:href="#DejaVuSans-64" x="1705.603516"/>
     <use xlink:href="#DejaVuSans-69" x="1769.080078"/>
     <use xlink:href="#DejaVuSans-64" x="1796.863281"/>
     <use xlink:href="#DejaVuSans-61" x="1860.339844"/>
     <use xlink:href="#DejaVuSans-74" x="1921.619141"/>
     <use xlink:href="#DejaVuSans-65" x="1960.828125"/>
     <use xlink:href="#DejaVuSans-20" x="2022.351562"/>
     <use xlink:href="#DejaVuSans-41" x="2054.138672"/>
     <use xlink:href="#DejaVuSans-74" x="2120.796875"/>
     <use xlink:href="#DejaVuSans-74" x="2160.005859"/>
     <use xlink:href="#DejaVuSans-72" x="2199.214844"/>
     <use xlink:href="#DejaVuSans-69" x="2240.328125"/>
     <use xlink:href="#DejaVuSans-62" x="2268.111328"/>
     <use xlink:href="#DejaVuSans-75" x="2331.587891"/>
     <use xlink:href="#DejaVuSans-74" x="2394.966797"/>
     <use xlink:href="#DejaVuSans-65" x="2434.175781"/>
     <use xlink:href="#DejaVuSans-73" x="2495.699219"/>
    </g>
   </g>
   <g id="legend_1">
    <g id="patch_7">
     <path d="M 487.170313 379.48 
L 641 379.48 
Q 643 379.48 643 377.48 
L 643 261.055 
Q 643 259.055 641 259.055 
L 487.170313 259.055 
Q 485.170313 259.055 485.170313 261.055 
L 485.170313 377.48 
Q 485.170313 379.48 487.170313 379.48 
z
" style="fill: #ffffff; opacity: 0.8; stroke: #cccccc; stroke-linejoin: miter"/>
    </g>
    <g id="line2d_34">
     <path d="M 489.170313 267.153437 
L 499.170313 267.153437 
L 509.170313 267.153437 
" style="fill: none; stroke: #1f77b4; stroke-width: 1.5; stroke-linecap: square"/>
     <g>
      <use xlink:href="#m74a4e39fdb" x="499.170313" y="267.153437" style="fill: #1f77b4; stroke: #1f77b4"/>
     </g>
    </g>
    <g id="text_29">
     <!-- Area -->
     <g transform="translate(517.170313 270.653437) scale(0.1 -0.1)">
      <use xlink:href="#DejaVuSans-41"/>
      <use xlink:href="#DejaVuSans-72" x="68.408203"/>
      <use xlink:href="#DejaVuSans-65" x="107.271484"/>
      <use xlink:href="#DejaVuSans-61" x="168.794922"/>
     </g>
    </g>
    <g id="line2d_35">
     <path d="M 489.170313 281.831563 
L 499.170313 281.831563 
L 509.170313 281.831563 
" style="fill: none; stroke: #ff7f0e; stroke-width: 1.5; stroke-linecap: square"/>
     <g>
      <use xlink:href="#mec089eee68" x="499.170313" y="281.831563" style="fill: #ff7f0e; stroke: #ff7f0e"/>
     </g>
    </g>
    <g id="text_30">
     <!-- Distance to Nearest City -->
     <g transform="translate(517.170313 285.331563) scale(0.1 -0.1)">
      <defs>
       <path id="DejaVuSans-44" d="M 1259 4147 
L 1259 519 
L 2022 519 
Q 2988 519 3436 956 
Q 3884 1394 3884 2338 
Q 3884 3275 3436 3711 
Q 2988 4147 2022 4147 
L 1259 4147 
z
M 628 4666 
L 1925 4666 
Q 3281 4666 3915 4102 
Q 4550 3538 4550 2338 
Q 4550 1131 3912 565 
Q 3275 0 1925 0 
L 628 0 
L 628 4666 
z
" transform="scale(0.015625)"/>
       <path id="DejaVuSans-4e" d="M 628 4666 
L 1478 4666 
L 3547 763 
L 3547 4666 
L 4159 4666 
L 4159 0 
L 3309 0 
L 1241 3903 
L 1241 0 
L 628 0 
L 628 4666 
z
" transform="scale(0.015625)"/>
      </defs>
      <use xlink:href="#DejaVuSans-44"/>
      <use xlink:href="#DejaVuSans-69" x="77.001953"/>
      <use xlink:href="#DejaVuSans-73" x="104.785156"/>
      <use xlink:href="#DejaVuSans-74" x="156.884766"/>
      <use xlink:href="#DejaVuSans-61" x="196.09375"/>
      <use xlink:href="#DejaVuSans-6e" x="257.373047"/>
      <use xlink:href="#DejaVuSans-63" x="320.751953"/>
      <use xlink:href="#DejaVuSans-65" x="375.732422"/>
      <use xlink:href="#DejaVuSans-20" x="437.255859"/>
      <use xlink:href="#DejaVuSans-74" x="469.042969"/>
      <use xlink:href="#DejaVuSans-6f" x="508.251953"/>
      <use xlink:href="#DejaVuSans-20" x="569.433594"/>
      <use xlink:href="#DejaVuSans-4e" x="601.220703"/>
      <use xlink:href="#DejaVuSans-65" x="676.025391"/>
      <use xlink:href="#DejaVuSans-61" x="737.548828"/>
      <use xlink:href="#DejaVuSans-72" x="798.828125"/>
      <use xlink:href="#DejaVuSans-65" x="837.691406"/>
      <use xlink:href="#DejaVuSans-73" x="899.214844"/>
      <use xlink:href="#DejaVuSans-74" x="951.314453"/>
      <use xlink:href="#DejaVuSans-20" x="990.523438"/>
      <use xlink:href="#DejaVuSans-43" x="1022.310547"/>
      <use xlink:href="#DejaVuSans-69" x="1092.134766"/>
      <use xlink:href="#DejaVuSans-74" x="1119.917969"/>
      <use xlink:href="#DejaVuSans-79" x="1159.126953"/>
     </g>
    </g>
    <g id="line2d_36">
     <path d="M 489.170313 296.509688 
L 499.170313 296.509688 
L 509.170313 296.509688 
" style="fill: none; stroke: #2ca02c; stroke-width: 1.5; stroke-linecap: square"/>
     <g>
      <use xlink:href="#m968140db7e" x="499.170313" y="296.509688" style="fill: #2ca02c; stroke: #2ca02c"/>
     </g>
    </g>
    <g id="text_31">
     <!-- CEC -->
     <g transform="translate(517.170313 300.009688) scale(0.1 -0.1)">
      <defs>
       <path id="DejaVuSans-45" d="M 628 4666 
L 3578 4666 
L 3578 4134 
L 1259 4134 
L 1259 2753 
L 3481 2753 
L 3481 2222 
L 1259 2222 
L 1259 531 
L 3634 531 
L 3634 0 
L 628 0 
L 628 4666 
z
" transform="scale(0.015625)"/>
      </defs>
      <use xlink:href="#DejaVuSans-43"/>
      <use xlink:href="#DejaVuSans-45" x="69.824219"/>
      <use xlink:href="#DejaVuSans-43" x="133.007812"/>
     </g>
    </g>
    <g id="line2d_37">
     <path d="M 489.170313 311.187813 
L 499.170313 311.187813 
L 509.170313 311.187813 
" style="fill: none; stroke: #d62728; stroke-width: 1.5; stroke-linecap: square"/>
     <g>
      <use xlink:href="#m0a047ace5c" x="499.170313" y="311.187813" style="fill: #d62728; stroke: #d62728"/>
     </g>
    </g>
    <g id="text_32">
     <!-- pH (H2O) -->
     <g transform="translate(517.170313 314.687813) scale(0.1 -0.1)">
      <defs>
       <path id="DejaVuSans-48" d="M 628 4666 
L 1259 4666 
L 1259 2753 
L 3553 2753 
L 3553 4666 
L 4184 4666 
L 4184 0 
L 3553 0 
L 3553 2222 
L 1259 2222 
L 1259 0 
L 628 0 
L 628 4666 
z
" transform="scale(0.015625)"/>
       <path id="DejaVuSans-28" d="M 1984 4856 
Q 1566 4138 1362 3434 
Q 1159 2731 1159 2009 
Q 1159 1288 1364 580 
Q 1569 -128 1984 -844 
L 1484 -844 
Q 1016 -109 783 600 
Q 550 1309 550 2009 
Q 550 2706 781 3412 
Q 1013 4119 1484 4856 
L 1984 4856 
z
" transform="scale(0.015625)"/>
       <path id="DejaVuSans-4f" d="M 2522 4238 
Q 1834 4238 1429 3725 
Q 1025 3213 1025 2328 
Q 1025 1447 1429 934 
Q 1834 422 2522 422 
Q 3209 422 3611 934 
Q 4013 1447 4013 2328 
Q 4013 3213 3611 3725 
Q 3209 4238 2522 4238 
z
M 2522 4750 
Q 3503 4750 4090 4092 
Q 4678 3434 4678 2328 
Q 4678 1225 4090 567 
Q 3503 -91 2522 -91 
Q 1538 -91 948 565 
Q 359 1222 359 2328 
Q 359 3434 948 4092 
Q 1538 4750 2522 4750 
z
" transform="scale(0.015625)"/>
       <path id="DejaVuSans-29" d="M 513 4856 
L 1013 4856 
Q 1481 4119 1714 3412 
Q 1947 2706 1947 2009 
Q 1947 1309 1714 600 
Q 1481 -109 1013 -844 
L 513 -844 
Q 928 -128 1133 580 
Q 1338 1288 1338 2009 
Q 1338 2731 1133 3434 
Q 928 4138 513 4856 
z
" transform="scale(0.015625)"/>
      </defs>
      <use xlink:href="#DejaVuSans-70"/>
      <use xlink:href="#DejaVuSans-48" x="63.476562"/>
      <use xlink:href="#DejaVuSans-20" x="138.671875"/>
      <use xlink:href="#DejaVuSans-28" x="170.458984"/>
      <use xlink:href="#DejaVuSans-48" x="209.472656"/>
      <use xlink:href="#DejaVuSans-32" x="284.667969"/>
      <use xlink:href="#DejaVuSans-4f" x="348.291016"/>
      <use xlink:href="#DejaVuSans-29" x="427.001953"/>
     </g>
    </g>
    <g id="line2d_38">
     <path d="M 489.170313 325.865938 
L 499.170313 325.865938 
L 509.170313 325.865938 
" style="fill: none; stroke: #9467bd; stroke-width: 1.5; stroke-linecap: square"/>
     <g>
      <use xlink:href="#m3227dc749e" x="499.170313" y="325.865938" style="fill: #9467bd; stroke: #9467bd"/>
     </g>
    </g>
    <g id="text_33">
     <!-- pH (H2O CaCl) -->
     <g transform="translate(517.170313 329.365938) scale(0.1 -0.1)">
      <defs>
       <path id="DejaVuSans-6c" d="M 603 4863 
L 1178 4863 
L 1178 0 
L 603 0 
L 603 4863 
z
" transform="scale(0.015625)"/>
      </defs>
      <use xlink:href="#DejaVuSans-70"/>
      <use xlink:href="#DejaVuSans-48" x="63.476562"/>
      <use xlink:href="#DejaVuSans-20" x="138.671875"/>
      <use xlink:href="#DejaVuSans-28" x="170.458984"/>
      <use xlink:href="#DejaVuSans-48" x="209.472656"/>
      <use xlink:href="#DejaVuSans-32" x="284.667969"/>
      <use xlink:href="#DejaVuSans-4f" x="348.291016"/>
      <use xlink:href="#DejaVuSans-20" x="427.001953"/>
      <use xlink:href="#DejaVuSans-43" x="458.789062"/>
      <use xlink:href="#DejaVuSans-61" x="528.613281"/>
      <use xlink:href="#DejaVuSans-43" x="589.892578"/>
      <use xlink:href="#DejaVuSans-6c" x="659.716797"/>
      <use xlink:href="#DejaVuSans-29" x="687.5"/>
     </g>
    </g>
    <g id="line2d_39">
     <path d="M 489.170313 340.544062 
L 499.170313 340.544062 
L 509.170313 340.544062 
" style="fill: none; stroke: #8c564b; stroke-width: 1.5; stroke-linecap: square"/>
     <g>
      <use xlink:href="#m8bce065042" x="499.170313" y="340.544062" style="fill: #8c564b; stroke: #8c564b"/>
     </g>
    </g>
    <g id="text_34">
     <!-- N -->
     <g transform="translate(517.170313 344.044062) scale(0.1 -0.1)">
      <use xlink:href="#DejaVuSans-4e"/>
     </g>
    </g>
    <g id="line2d_40">
     <path d="M 489.170313 355.222188 
L 499.170313 355.222188 
L 509.170313 355.222188 
" style="fill: none; stroke: #e377c2; stroke-width: 1.5; stroke-linecap: square"/>
     <g>
      <use xlink:href="#m3b5be87c8c" x="499.170313" y="355.222188" style="fill: #e377c2; stroke: #e377c2"/>
     </g>
    </g>
    <g id="text_35">
     <!-- CN -->
     <g transform="translate(517.170313 358.722188) scale(0.1 -0.1)">
      <use xlink:href="#DejaVuSans-43"/>
      <use xlink:href="#DejaVuSans-4e" x="69.824219"/>
     </g>
    </g>
    <g id="line2d_41">
     <path d="M 489.170313 369.900313 
L 499.170313 369.900313 
L 509.170313 369.900313 
" style="fill: none; stroke: #7f7f7f; stroke-width: 1.5; stroke-linecap: square"/>
     <g>
      <use xlink:href="#m038f1f6049" x="499.170313" y="369.900313" style="fill: #7f7f7f; stroke: #7f7f7f"/>
     </g>
    </g>
    <g id="text_36">
     <!-- pH (CaCl) -->
     <g transform="translate(517.170313 373.400313) scale(0.1 -0.1)">
      <use xlink:href="#DejaVuSans-70"/>
      <use xlink:href="#DejaVuSans-48" x="63.476562"/>
      <use xlink:href="#DejaVuSans-20" x="138.671875"/>
      <use xlink:href="#DejaVuSans-28" x="170.458984"/>
      <use xlink:href="#DejaVuSans-43" x="209.472656"/>
      <use xlink:href="#DejaVuSans-61" x="279.296875"/>
      <use xlink:href="#DejaVuSans-43" x="340.576172"/>
      <use xlink:href="#DejaVuSans-6c" x="410.400391"/>
      <use xlink:href="#DejaVuSans-29" x="438.183594"/>
     </g>
    </g>
   </g>
  </g>
 </g>
 <defs>
  <clipPath id="pab95976095">
   <rect x="90" y="51.84" width="558" height="332.64"/>
  </clipPath>
 </defs>
</svg>
